<svg width="86" height="74" viewBox="0 0 86 74" fill="none" xmlns="http://www.w3.org/2000/svg">
<path fill-rule="evenodd" clip-rule="evenodd" d="M73.8323 4.89862C70.9027 9.61933 66.9768 11.8799 63.6735 12.9789C60.0267 9.54936 54.6015 7.10144 46.6247 7.173C47.8509 4.0369 47.6365 0.289402 46.1287 0.0339476C44.4841 -0.244706 40.1833 3.39123 40.3811 7.68838C39.2318 7.85969 38.0403 8.07557 36.8051 8.33898C32.6593 9.22307 29.4814 11.0388 27.0331 13.3491L27.0046 13.2456C25.1039 12.8357 20.4444 10.9629 17.0126 6.7509C14.4897 3.65423 14.4141 3.56911 13.8602 2.94549C13.6608 2.72087 13.3992 2.42639 12.9389 1.89616C11.3008 0.00912676 6.07902 11.7589 17.299 23.1237C13.094 22.9754 6.87577 23.6192 1.91456 26.8203C-6.17094 32.0372 13.6605 38.9239 18.5997 32.1584C18.6742 32.0564 18.7469 31.9553 18.8179 31.8553C18.687 32.7041 18.5814 33.4814 18.4886 34.1643L18.4886 34.1646C18.311 35.4717 18.1804 36.4327 18.0095 36.8876C17.7094 37.8598 16.7205 39.6958 15.6876 41.6134L15.6875 41.6135L15.6875 41.6135C14.7158 43.4174 13.7052 45.2936 13.1924 46.5913C10.7492 52.7729 10.119 70.8859 41.0451 73.2958C78.6705 76.2277 79.1583 52.2843 77.0069 46.5913C75.6075 42.8879 74.3761 40.7736 73.3793 39.0619C71.8283 36.3988 70.8452 34.7106 70.68 29.5298C70.662 28.9623 70.6208 28.3496 70.5515 27.702C70.9962 28.2144 71.5246 28.7776 72.1472 29.3966C79.3605 36.5666 84.8737 32.1501 85.8607 29.2084C86.8478 26.2667 82.3765 24.2475 79.0999 23.188C76.8427 22.4581 73.3809 22.4901 71.3164 22.6381C80.1741 14.9954 80.4036 6.5048 79.1686 2.79434C78.4671 1.01558 77.2543 -0.615615 73.8323 4.89862ZM33.0908 36.8967C36.8029 37.4271 38.3939 34.285 38.3939 31.0633C38.3939 27.8416 36.0196 25.2299 33.0908 25.2299C30.1619 25.2299 27.7876 27.8416 27.7876 31.0633C27.7876 34.285 29.9089 36.4422 33.0908 36.8967ZM62.7882 33.1845C62.7882 37.5778 60.5248 39.018 56.4244 39.018C52.3241 39.018 50.0607 38.6384 50.0607 34.2452C50.0607 29.8519 52.3241 23.1086 56.4244 23.1086C60.5248 23.1086 62.7882 28.7913 62.7882 33.1845ZM43.9862 63.4123C49.4501 63.4123 52.182 60.5632 52.182 57.0486C52.182 53.534 49.4179 50.6848 43.9862 50.6848C38.5546 50.6848 34.1514 53.534 34.1514 57.0486C35.8869 60.8668 38.4142 63.4123 43.9862 63.4123Z" fill="white"/>
</svg>
