<?xml version="1.0" standalone="no"?><!DOCTYPE svg PUBLIC "-//W3C//DTD SVG 1.1//EN" "http://www.w3.org/Graphics/SVG/1.1/DTD/svg11.dtd"><svg height="1024" node-id="1" sillyvg="true" template-height="1024" template-width="1024" version="1.1" viewBox="0 0 1024 1024" width="1024" xmlns="http://www.w3.org/2000/svg" xmlns:xlink="http://www.w3.org/1999/xlink"><defs node-id="70"></defs><path d="M 638.00 145.40 L 651.80 139.90 L 655.60 138.60 L 659.10 137.90 L 661.50 137.80 L 663.60 138.10 L 665.50 138.80 L 667.20 140.00 L 668.80 141.70 L 670.20 144.30 L 638.00 145.40 Z" fill="#ffffff" fill-rule="nonzero" node-id="74" stroke="none" target-height="7.599991" target-width="32.200012" target-x="638" target-y="137.8"></path><path d="M 461.50 94.20 L 468.90 82.10 L 471.20 79.00 L 473.60 76.50 L 475.40 75.20 L 477.30 74.20 L 479.30 73.70 L 481.30 73.60 L 483.60 74.10 L 486.20 75.30 L 486.60 79.20 L 486.60 87.00 L 485.90 92.80 L 482.90 110.30 L 481.80 122.00 L 482.20 129.80 L 482.90 133.70 L 484.30 138.20 L 486.30 142.40 L 488.70 146.30 L 491.40 149.90 L 497.80 156.60 L 508.50 165.50 L 510.60 163.10 L 513.30 158.70 L 513.90 156.50 L 514.20 153.50 L 513.90 150.50 L 513.20 147.40 L 511.30 142.90 L 508.90 138.30 L 503.50 129.50 L 505.60 126.70 L 507.80 124.40 L 510.30 122.40 L 512.90 120.80 L 516.80 119.20 L 520.80 118.20 L 525.10 117.70 L 529.40 117.70 L 533.80 118.20 L 538.30 119.20 L 546.80 122.30 L 554.50 126.70 L 557.90 129.40 L 563.70 135.30 L 566.10 138.50 L 568.00 141.80 L 569.60 145.30 L 571.20 150.20 L 572.30 155.20 L 573.00 160.40 L 573.40 168.40 L 573.20 176.40 L 572.40 192.20 L 575.10 191.50 L 578.40 191.40 L 592.90 192.50 L 596.40 192.50 L 599.30 192.00 L 601.00 191.30 L 602.50 190.30 L 603.60 189.00 L 604.40 187.40 L 604.90 185.20 L 605.00 182.30 L 616.90 197.80 L 635.00 192.80 L 638.00 194.90 L 641.00 196.60 L 644.10 197.80 L 647.40 198.50 L 650.70 198.80 L 654.30 198.60 L 664.00 175.70 L 665.80 198.90 L 690.70 199.40 L 685.40 169.90 L 693.00 169.50 L 698.20 188.60 L 703.00 207.80 L 706.90 199.80 L 710.30 191.70 L 713.30 183.50 L 715.80 175.10 L 717.90 166.60 L 719.60 158.10 L 720.80 149.40 L 721.50 140.70 L 721.80 132.00 L 721.50 123.20 L 720.80 114.50 L 719.70 105.70 L 708.90 135.70 L 706.70 140.60 L 701.60 149.70 L 698.50 153.80 L 694.80 157.70 L 690.70 161.20 L 677.30 166.40 L 691.70 143.10 L 695.20 136.60 L 698.40 130.00 L 701.10 123.10 L 703.30 116.00 L 704.90 108.80 L 706.00 101.50 L 707.60 82.10 L 708.00 78.90 L 708.80 76.20 L 709.60 74.60 L 710.60 73.40 L 712.00 72.50 L 713.50 72.10 L 715.50 72.10 L 718.20 72.60 L 722.00 79.00 L 725.30 85.60 L 728.20 92.30 L 730.70 99.20 L 732.70 106.30 L 734.40 113.40 L 735.60 120.60 L 736.50 128.00 L 737.10 137.90 L 737.00 147.80 L 736.30 157.70 L 735.00 167.60 L 733.10 177.30 L 730.70 186.90 L 727.70 196.40 L 724.30 205.50 L 720.30 214.30 L 734.50 219.70 L 748.60 226.40 L 755.40 230.30 L 761.90 234.50 L 768.20 239.20 L 774.00 244.20 L 779.40 249.60 L 783.10 253.90 L 786.40 258.50 L 789.40 263.20 L 792.10 268.20 L 794.30 273.40 L 796.00 278.90 L 797.30 284.70 L 798.20 290.80 L 798.50 298.10 L 798.30 305.30 L 797.70 312.40 L 796.50 319.50 L 794.90 326.50 L 792.90 333.40 L 790.50 340.10 L 787.60 346.80 L 784.40 353.20 L 780.80 359.50 L 776.80 365.50 L 772.50 371.30 L 767.80 376.90 L 762.90 382.20 L 757.70 387.20 L 752.20 391.90 L 746.40 396.30 L 740.40 400.30 L 734.20 403.90 L 727.80 407.20 L 721.20 410.00 L 714.40 412.50 L 707.50 414.40 L 700.40 416.00 L 692.30 417.00 L 684.20 417.60 L 676.20 417.70 L 668.10 417.30 L 660.10 416.40 L 652.20 415.10 L 644.30 413.30 L 636.50 411.00 L 628.90 408.30 L 621.40 405.30 L 614.10 401.80 L 607.00 397.90 L 600.10 393.70 L 593.40 389.10 L 587.00 384.10 L 566.30 366.30 L 557.90 359.60 L 550.70 355.40 L 546.90 353.80 L 542.80 352.70 L 538.50 352.10 L 534.20 353.20 L 530.30 354.70 L 526.70 356.60 L 523.50 358.90 L 517.70 364.50 L 513.00 371.20 L 510.40 376.00 L 508.20 381.10 L 506.40 386.50 L 505.00 392.00 L 503.20 402.60 L 521.50 406.00 L 504.60 413.50 L 508.10 424.60 L 512.20 435.50 L 516.60 446.30 L 521.50 456.90 L 526.80 467.30 L 532.50 477.50 L 538.60 487.40 L 545.00 497.10 L 551.80 506.60 L 559.00 515.80 L 566.50 524.80 L 574.30 533.40 L 582.40 541.80 L 590.90 549.80 L 606.70 564.00 L 613.30 570.80 L 619.40 578.00 L 625.00 585.50 L 630.30 593.30 L 635.10 601.50 L 643.70 618.40 L 647.50 627.10 L 652.60 640.40 L 657.20 653.80 L 664.80 654.00 L 672.20 654.70 L 679.30 655.90 L 686.40 657.50 L 693.30 659.60 L 706.90 664.90 L 722.10 672.60 L 730.60 677.50 L 751.10 691.10 L 763.00 699.60 L 735.90 625.00 L 729.20 603.10 L 726.50 592.10 L 724.20 581.10 L 722.40 570.00 L 721.50 561.70 L 721.00 553.40 L 720.90 545.00 L 721.10 536.70 L 721.90 528.40 L 723.20 520.00 L 725.00 511.70 L 727.40 503.20 L 732.60 512.70 L 732.00 524.90 L 731.90 537.00 L 732.50 549.10 L 733.60 561.10 L 735.20 573.10 L 737.30 585.00 L 739.90 596.80 L 742.90 608.60 L 746.40 620.20 L 754.30 643.10 L 767.50 676.40 L 771.60 689.00 L 773.70 699.20 L 774.20 704.40 L 774.10 709.70 L 773.60 715.00 L 768.80 714.20 L 764.20 712.90 L 759.90 711.20 L 753.50 707.90 L 747.40 704.10 L 729.70 691.10 L 719.50 684.40 L 710.90 680.10 L 688.60 670.90 L 684.80 696.50 L 684.30 670.30 L 665.10 665.70 L 665.40 679.40 L 666.30 693.20 L 670.30 734.40 L 671.40 757.20 L 670.80 775.40 L 669.80 784.40 L 668.30 793.50 L 666.10 802.50 L 677.60 790.60 L 678.20 738.20 L 679.60 712.00 L 680.60 737.80 L 681.00 789.50 L 689.50 789.60 L 695.70 709.40 L 697.20 682.60 L 698.30 691.40 L 698.90 700.20 L 699.00 708.90 L 698.70 722.00 L 697.80 735.20 L 694.00 774.50 L 693.00 787.60 L 695.70 785.20 L 698.00 782.60 L 699.80 779.90 L 702.60 773.90 L 704.60 765.80 L 707.60 740.20 L 708.40 778.20 L 723.70 774.70 L 738.80 770.70 L 748.80 767.70 L 768.50 760.70 L 765.30 768.90 L 762.60 777.10 L 760.30 785.50 L 758.40 793.90 L 756.80 802.50 L 755.50 813.20 L 754.80 824.00 L 754.60 834.90 L 755.10 845.80 L 756.40 838.20 L 758.20 830.70 L 760.30 823.50 L 762.90 816.40 L 765.90 809.60 L 770.20 801.20 L 775.00 793.20 L 780.30 785.50 L 786.20 778.20 L 792.50 771.30 L 799.30 764.70 L 806.40 758.60 L 814.00 752.90 L 821.90 747.70 L 830.10 743.00 L 838.50 738.70 L 847.30 735.00 L 841.90 748.90 L 820.60 762.10 L 810.20 769.10 L 815.70 779.10 L 820.60 789.30 L 825.00 799.90 L 827.80 808.00 L 830.20 816.20 L 832.20 824.50 L 834.00 835.20 L 833.90 836.80 L 833.30 838.00 L 831.30 839.80 L 829.80 840.30 L 827.40 840.80 L 819.80 841.40 L 802.30 840.90 L 767.40 839.10 L 767.80 842.50 L 768.10 853.40 L 768.60 856.90 L 769.70 860.10 L 770.70 862.10 L 772.20 863.90 L 774.20 865.50 L 779.50 868.50 L 785.10 871.10 L 791.10 873.10 L 797.30 874.60 L 803.50 875.50 L 809.80 875.80 L 819.20 875.10 L 828.20 872.80 L 832.60 871.10 L 836.70 869.00 L 840.50 866.40 L 844.20 863.40 L 848.40 857.70 L 860.00 839.60 L 864.10 833.70 L 868.60 828.30 L 871.90 825.00 L 875.60 821.90 L 879.70 819.10 L 886.70 818.50 L 862.90 856.00 L 855.30 868.70 L 851.90 872.50 L 848.30 875.90 L 844.50 878.80 L 840.40 881.20 L 836.10 883.30 L 831.60 885.00 L 827.00 886.30 L 822.30 887.20 L 815.80 887.90 L 809.30 887.90 L 802.70 887.40 L 796.10 886.30 L 789.70 884.60 L 783.50 882.50 L 777.40 879.90 L 771.80 876.80 L 766.50 873.40 L 761.90 868.90 L 757.80 864.10 L 754.20 859.00 L 751.20 853.60 L 748.60 848.00 L 746.40 842.20 L 744.70 836.30 L 743.40 830.10 L 742.20 821.80 L 741.80 813.40 L 741.90 804.90 L 742.60 796.50 L 743.90 788.20 L 745.60 780.20 L 735.30 783.00 L 715.30 789.60 L 695.70 797.70 L 676.80 807.10 L 667.60 812.40 L 664.90 817.80 L 662.70 823.40 L 660.90 829.20 L 658.60 838.10 L 652.70 864.90 L 657.60 866.20 L 662.20 867.70 L 666.50 869.70 L 670.70 871.90 L 675.90 875.40 L 681.00 879.20 L 685.70 883.50 L 692.50 890.30 L 698.90 897.60 L 697.90 903.70 L 696.30 909.60 L 694.10 915.40 L 691.40 920.90 L 688.10 926.00 L 684.40 930.80 L 680.20 935.20 L 675.60 939.20 L 670.50 942.60 L 666.50 944.80 L 658.00 948.20 L 648.80 950.60 L 639.60 951.90 L 635.00 952.00 L 628.90 951.50 L 622.80 950.50 L 616.80 948.90 L 610.90 946.90 L 605.20 944.50 L 594.10 938.50 L 583.90 931.60 L 576.90 926.50 L 549.90 904.00 L 542.80 899.00 L 537.90 896.10 L 532.60 893.60 L 527.10 891.40 L 519.70 890.50 L 512.30 890.00 L 504.80 889.90 L 493.70 890.20 L 460.20 893.00 L 449.00 893.70 L 430.40 893.90 L 408.00 893.40 L 403.10 893.70 L 393.40 895.40 L 387.50 899.40 L 382.10 903.90 L 366.50 918.30 L 361.10 922.90 L 353.50 928.40 L 349.40 930.70 L 341.70 933.20 L 334.00 935.00 L 326.00 936.40 L 317.90 937.10 L 309.90 937.20 L 301.80 936.80 L 293.80 935.80 L 286.00 934.10 L 278.20 931.90 L 274.40 930.20 L 271.00 928.10 L 267.90 925.70 L 265.10 922.90 L 260.30 916.50 L 256.70 909.40 L 255.40 905.50 L 253.90 899.70 L 253.00 893.80 L 263.70 883.00 L 269.20 877.90 L 275.00 873.10 L 281.10 868.60 L 287.50 864.50 L 282.00 842.80 L 277.00 820.90 L 241.60 820.60 L 229.70 820.10 L 206.10 818.30 L 194.30 816.80 L 182.70 814.70 L 171.30 812.10 L 162.80 809.70 L 154.50 806.90 L 146.20 803.60 L 138.10 799.80 L 132.80 796.90 L 127.80 793.70 L 123.10 790.20 L 118.70 786.40 L 113.20 780.90 L 108.20 775.00 L 103.50 768.70 L 99.30 762.10 L 95.50 755.20 L 92.10 748.10 L 89.10 740.80 L 84.20 725.90 L 80.80 723.60 L 77.80 721.00 L 75.30 718.10 L 73.20 715.10 L 70.90 710.60 L 69.10 705.90 L 67.90 700.80 L 67.30 695.60 L 67.00 690.20 L 67.10 684.70 L 68.00 676.50 L 69.40 668.50 L 73.40 653.80 L 78.60 646.10 L 83.50 635.70 L 92.40 609.50 L 94.80 603.00 L 97.70 596.70 L 104.60 584.30 L 112.50 572.70 L 116.80 567.30 L 123.00 560.40 L 129.50 553.80 L 136.30 547.40 L 146.90 538.30 L 180.20 512.30 L 191.10 503.40 L 201.60 494.30 L 218.10 478.20 L 226.10 469.80 L 233.70 461.10 L 242.90 448.80 L 247.00 442.30 L 250.70 435.70 L 254.00 428.70 L 256.70 421.40 L 258.60 415.60 L 261.30 403.70 L 262.40 391.40 L 262.10 379.20 L 261.40 373.10 L 258.90 361.10 L 257.10 355.30 L 253.50 346.40 L 251.80 343.60 L 247.50 338.80 L 244.10 336.30 L 240.40 334.20 L 236.40 332.60 L 232.20 331.50 L 227.90 330.90 L 223.50 330.70 L 219.10 331.10 L 214.80 331.90 L 210.70 333.20 L 206.70 335.00 L 203.20 337.20 L 199.90 339.90 L 195.90 344.90 L 194.30 347.70 L 191.90 354.00 L 191.20 357.00 L 191.00 360.00 L 191.50 366.00 L 193.60 373.40 L 195.40 377.70 L 199.50 385.90 L 212.50 378.70 L 214.90 380.30 L 217.10 382.30 L 220.70 387.10 L 223.20 392.70 L 224.30 398.60 L 224.20 401.40 L 223.70 404.10 L 222.70 406.60 L 221.30 408.80 L 218.30 411.50 L 216.20 412.50 L 209.20 414.40 L 204.80 415.10 L 200.60 415.20 L 196.50 415.00 L 192.40 414.30 L 184.60 411.90 L 181.00 410.10 L 176.30 407.30 L 171.90 404.00 L 167.90 400.20 L 164.20 396.00 L 160.90 391.40 L 158.10 386.50 L 155.70 381.40 L 153.80 376.10 L 152.30 370.60 L 151.50 365.00 L 151.20 359.40 L 151.50 353.80 L 153.10 345.60 L 158.50 332.00 L 161.00 326.80 L 164.00 322.10 L 167.50 317.60 L 171.30 313.50 L 175.40 309.80 L 179.90 306.50 L 184.60 303.60 L 189.60 301.00 L 194.70 298.80 L 200.10 297.00 L 205.60 295.60 L 211.20 294.50 L 222.60 293.60 L 234.10 294.30 L 239.70 295.20 L 245.20 296.60 L 250.70 298.30 L 256.00 300.40 L 261.00 302.90 L 265.80 305.80 L 275.30 312.90 L 279.70 316.90 L 283.70 321.10 L 287.30 325.60 L 293.50 335.30 L 298.40 345.80 L 301.00 353.20 L 303.10 360.70 L 304.80 368.50 L 306.90 384.20 L 307.40 392.20 L 307.70 404.00 L 307.30 415.40 L 306.50 424.40 L 305.20 433.20 L 303.40 441.80 L 301.30 450.20 L 295.90 466.70 L 289.10 482.60 L 283.90 492.90 L 278.30 503.10 L 265.80 522.90 L 252.20 542.00 L 241.40 556.00 L 208.30 596.70 L 191.90 617.70 L 188.00 623.20 L 184.50 628.80 L 180.70 636.60 L 179.30 640.70 L 178.20 644.90 L 177.60 649.30 L 177.50 653.90 L 177.80 657.30 L 179.50 663.30 L 180.80 666.00 L 182.90 669.40 L 185.50 672.50 L 188.60 675.30 L 191.90 677.70 L 199.50 681.80 L 207.60 684.60 L 211.80 685.60 L 218.10 686.50 L 224.00 686.80 L 231.50 686.00 L 239.00 684.90 L 246.60 683.30 L 254.10 681.20 L 261.30 678.70 L 268.40 675.70 L 273.60 673.20 L 278.50 670.30 L 287.60 663.70 L 298.30 644.40 L 304.20 635.00 L 313.40 621.20 L 351.90 566.90 L 360.90 553.00 L 366.50 543.50 L 371.70 533.90 L 376.60 524.00 L 381.00 513.90 L 384.80 503.50 L 388.10 492.70 L 390.10 483.00 L 391.70 473.20 L 392.80 463.30 L 393.80 448.50 L 394.30 433.70 L 394.30 374.00 L 394.90 359.10 L 396.00 344.30 L 397.20 334.50 L 398.80 324.70 L 403.00 306.10 L 405.60 297.40 L 408.60 288.80 L 412.10 280.20 L 415.90 271.90 L 420.20 263.90 L 424.90 256.20 L 430.10 248.70 L 435.80 241.50 L 441.90 234.80 L 448.50 228.50 L 455.50 222.60 L 451.80 214.90 L 448.70 207.00 L 446.20 199.00 L 444.20 190.90 L 442.70 182.70 L 441.80 174.40 L 441.50 166.10 L 441.70 157.70 L 442.40 149.40 L 443.60 141.20 L 445.30 133.00 L 447.60 124.90 L 450.30 116.90 L 453.60 109.20 L 457.30 101.60 L 461.50 94.20 Z M 457.00 184.10 L 461.50 200.20 L 463.20 204.10 L 465.20 207.50 L 466.90 209.40 L 468.80 211.00 L 470.90 212.30 L 473.30 213.00 L 476.00 213.30 L 479.40 213.10 L 484.10 191.40 L 489.60 170.00 L 484.70 164.30 L 480.30 158.30 L 476.30 152.00 L 472.80 145.50 L 469.90 138.70 L 467.50 131.70 L 465.70 124.50 L 464.50 117.00 L 457.90 141.80 L 455.30 155.80 L 454.60 167.10 L 454.90 172.70 L 455.70 178.40 L 457.00 184.10 Z M 515.60 123.40 L 524.00 140.70 L 524.30 146.00 L 524.10 151.20 L 523.50 156.40 L 520.30 171.80 L 543.70 180.50 L 546.60 196.90 L 549.30 196.30 L 551.50 195.50 L 553.20 194.40 L 555.70 191.30 L 557.50 186.50 L 558.10 183.10 L 559.70 164.30 L 559.40 159.40 L 558.60 154.60 L 557.20 150.00 L 555.30 145.70 L 552.90 141.60 L 550.10 137.90 L 546.80 134.50 L 543.20 131.50 L 539.30 128.90 L 535.00 126.80 L 530.40 125.10 L 525.70 124.00 L 520.80 123.40 L 515.60 123.40 Z M 496.20 175.50 L 494.40 180.40 L 491.60 190.30 L 490.30 198.00 L 489.50 205.80 L 495.70 204.50 L 515.10 201.30 L 523.40 199.00 L 527.30 197.40 L 531.00 195.50 L 534.50 193.10 L 537.80 190.10 L 523.60 186.00 L 509.60 181.50 L 502.80 178.70 L 496.20 175.50 Z M 514.60 211.10 L 494.40 216.60 L 481.40 221.40 L 475.10 224.40 L 469.10 227.80 L 463.40 231.70 L 458.00 236.20 L 455.80 236.50 L 449.50 242.90 L 443.90 249.50 L 438.80 256.30 L 434.20 263.30 L 430.10 270.70 L 426.50 278.20 L 423.20 285.80 L 420.40 293.70 L 417.30 304.40 L 414.70 315.40 L 412.80 326.60 L 411.30 337.90 L 410.30 349.30 L 409.80 360.80 L 409.50 378.10 L 409.80 395.30 L 411.40 428.90 L 417.30 427.40 L 428.00 425.80 L 436.50 426.00 L 440.60 426.70 L 444.50 427.80 L 448.10 429.50 L 450.60 431.20 L 452.90 433.20 L 455.00 435.60 L 457.00 438.50 L 458.20 443.80 L 458.90 449.30 L 459.00 453.00 L 458.30 460.20 L 457.50 463.80 L 456.30 467.10 L 454.70 470.30 L 452.70 473.30 L 450.30 476.00 L 445.50 480.40 L 443.50 481.80 L 439.40 483.60 L 436.50 484.10 L 433.40 484.30 L 430.20 484.00 L 425.40 483.00 L 411.80 478.30 L 409.10 485.00 L 406.80 491.80 L 404.80 501.20 L 404.20 506.00 L 407.80 507.50 L 420.20 511.60 L 424.30 513.10 L 428.00 515.00 L 432.20 518.30 L 433.90 520.30 L 435.20 522.50 L 436.10 525.20 L 437.00 531.50 L 436.90 534.50 L 436.40 537.30 L 435.10 541.50 L 433.20 545.50 L 423.80 560.90 L 415.90 562.20 L 408.10 562.90 L 400.20 562.90 L 392.30 562.40 L 384.50 561.40 L 376.60 560.00 L 341.00 603.00 L 329.70 617.80 L 322.50 627.90 L 315.80 638.30 L 309.50 648.90 L 305.10 657.10 L 301.10 665.40 L 297.50 674.00 L 294.20 682.80 L 290.90 693.70 L 288.20 704.70 L 286.00 715.70 L 284.30 726.70 L 283.20 737.90 L 282.50 749.00 L 282.30 760.20 L 282.50 771.40 L 283.10 782.60 L 285.50 804.90 L 287.20 816.10 L 290.00 830.80 L 293.30 845.50 L 297.10 859.90 L 311.20 861.50 L 318.20 862.80 L 325.00 864.70 L 329.30 866.30 L 333.50 868.20 L 337.50 870.50 L 341.30 873.20 L 344.70 876.50 L 348.00 880.20 L 324.90 894.10 L 317.40 899.10 L 312.70 902.70 L 308.20 906.50 L 304.10 910.70 L 301.30 914.10 L 296.50 921.60 L 294.60 925.90 L 316.60 926.70 L 324.00 926.50 L 333.60 925.20 L 338.40 924.00 L 342.00 922.50 L 348.50 918.60 L 353.00 915.10 L 357.20 911.10 L 369.20 898.40 L 373.30 894.50 L 377.60 890.80 L 382.30 887.70 L 385.60 886.00 L 389.20 884.70 L 393.10 883.60 L 402.50 882.60 L 411.80 882.10 L 449.40 881.50 L 458.80 881.00 L 486.10 878.40 L 495.40 877.80 L 510.80 877.70 L 522.80 879.00 L 528.80 880.10 L 534.50 881.70 L 540.10 883.80 L 545.50 886.40 L 550.70 889.60 L 555.70 893.50 L 576.60 912.50 L 588.90 922.60 L 599.40 929.50 L 604.90 932.50 L 610.50 934.90 L 616.30 936.90 L 620.80 938.00 L 630.20 939.10 L 637.30 939.30 L 639.70 939.00 L 644.70 937.50 L 646.90 936.20 L 649.60 933.60 L 650.40 931.10 L 650.20 929.90 L 649.60 928.40 L 648.30 926.80 L 643.70 922.90 L 633.80 916.10 L 602.30 898.10 L 592.30 891.30 L 587.50 887.40 L 596.90 881.20 L 616.00 869.40 L 640.80 861.70 L 640.90 851.50 L 640.30 846.10 L 638.80 842.30 L 637.50 840.60 L 635.80 839.20 L 633.50 837.90 L 643.90 836.70 L 651.10 796.10 L 652.60 785.90 L 653.80 775.70 L 654.40 761.90 L 653.60 738.10 L 651.80 709.70 L 649.10 687.10 L 647.20 675.90 L 644.70 664.80 L 641.80 653.90 L 639.10 645.90 L 636.10 637.90 L 632.70 630.10 L 628.90 622.40 L 626.80 616.30 L 624.20 610.40 L 618.20 599.20 L 613.50 592.10 L 608.40 585.30 L 602.80 578.70 L 594.10 569.20 L 577.00 552.40 L 569.20 544.30 L 554.50 527.40 L 547.60 518.50 L 534.70 500.10 L 528.70 490.60 L 523.10 480.80 L 517.90 470.90 L 513.10 460.80 L 508.60 450.50 L 504.60 440.00 L 501.00 429.40 L 497.90 418.60 L 495.20 407.70 L 495.60 400.50 L 496.50 393.10 L 497.80 385.70 L 499.80 378.50 L 503.50 369.20 L 505.80 365.00 L 508.40 360.90 L 511.50 357.20 L 514.90 353.80 L 518.70 350.80 L 522.90 348.30 L 527.70 346.20 L 535.50 344.50 L 542.80 344.40 L 547.50 345.10 L 552.20 346.30 L 556.70 348.10 L 561.10 350.20 L 569.70 355.40 L 575.90 359.90 L 599.50 378.60 L 605.80 382.90 L 612.30 386.90 L 619.20 390.60 L 626.20 393.90 L 633.40 396.70 L 640.80 399.10 L 648.30 401.20 L 655.90 402.70 L 663.50 403.80 L 671.20 404.50 L 678.90 404.60 L 686.50 404.30 L 694.10 403.40 L 701.60 402.00 L 709.00 400.10 L 716.20 397.60 L 723.20 394.60 L 730.00 391.00 L 741.90 383.10 L 746.90 379.00 L 751.60 374.70 L 756.10 369.90 L 760.30 364.90 L 764.10 359.70 L 767.70 354.20 L 770.90 348.40 L 776.20 336.40 L 780.10 323.90 L 781.40 317.50 L 782.30 311.10 L 782.80 304.70 L 782.80 298.20 L 782.40 291.80 L 781.50 285.50 L 780.10 279.30 L 778.20 273.20 L 775.80 267.30 L 772.90 261.50 L 769.40 256.00 L 765.30 250.60 L 759.20 245.90 L 746.40 237.30 L 732.80 230.00 L 725.70 226.90 L 699.50 217.70 L 694.90 218.50 L 672.70 214.30 L 650.20 210.40 L 635.10 208.20 L 620.00 206.40 L 593.50 204.30 L 570.80 204.00 L 559.50 204.50 L 548.20 205.30 L 537.00 206.70 L 525.80 208.70 L 514.60 211.10 Z M 223.00 317.80 L 228.40 318.60 L 233.50 319.90 L 238.50 321.70 L 247.90 326.30 L 252.40 329.10 L 258.90 333.90 L 265.00 339.10 L 267.50 348.90 L 272.10 349.00 L 274.80 379.40 L 275.10 389.50 L 274.90 396.30 L 274.30 403.00 L 273.30 409.60 L 271.90 416.10 L 269.80 422.60 L 263.90 436.10 L 256.50 449.50 L 252.40 455.80 L 246.50 464.00 L 240.30 471.80 L 233.60 479.40 L 219.40 493.80 L 200.40 510.70 L 152.80 549.30 L 135.50 564.10 L 130.10 569.40 L 124.90 575.10 L 120.20 581.10 L 115.70 587.30 L 111.70 593.80 L 108.00 600.50 L 104.60 607.40 L 99.10 621.70 L 96.90 629.00 L 94.50 639.00 L 94.40 641.20 L 95.10 644.70 L 96.30 646.60 L 97.90 648.20 L 100.00 649.40 L 104.70 650.60 L 107.40 650.70 L 112.70 649.80 L 115.20 648.80 L 117.50 647.40 L 119.50 645.70 L 121.10 643.60 L 130.80 644.00 L 140.70 644.00 L 118.10 653.60 L 125.10 665.30 L 128.20 671.60 L 130.80 677.90 L 132.00 682.30 L 132.80 686.70 L 133.20 691.10 L 133.10 694.40 L 131.80 701.20 L 130.60 704.70 L 128.70 708.00 L 126.50 710.80 L 124.00 713.20 L 118.10 716.90 L 114.80 718.20 L 109.60 719.70 L 104.30 720.70 L 93.60 721.70 L 96.60 730.70 L 102.80 745.50 L 108.80 756.70 L 112.30 762.10 L 116.10 767.10 L 120.30 771.90 L 124.70 776.40 L 129.60 780.50 L 134.90 784.20 L 140.60 787.80 L 146.50 790.90 L 158.60 796.10 L 166.90 798.90 L 175.40 801.30 L 184.00 803.20 L 201.50 805.80 L 210.30 806.70 L 236.70 808.10 L 242.10 736.70 L 243.90 701.00 L 219.90 700.20 L 206.70 698.60 L 196.40 696.00 L 191.50 694.10 L 186.80 691.70 L 182.20 688.80 L 178.40 685.70 L 174.90 682.40 L 171.90 678.70 L 169.20 674.80 L 164.80 666.30 L 161.80 657.20 L 160.50 650.90 L 159.80 644.50 L 159.60 638.20 L 164.20 629.20 L 169.30 620.50 L 174.80 612.20 L 183.60 600.00 L 221.20 552.90 L 251.20 512.90 L 262.20 496.80 L 269.50 483.20 L 272.50 476.10 L 274.90 468.80 L 276.80 461.20 L 280.20 456.20 L 283.20 451.20 L 285.90 446.00 L 288.10 440.70 L 290.50 433.50 L 292.40 426.00 L 293.70 418.40 L 294.50 410.60 L 294.90 402.80 L 294.40 387.00 L 292.60 371.40 L 290.60 359.80 L 288.30 348.70 L 275.70 325.10 L 274.70 326.40 L 271.60 322.50 L 268.10 318.90 L 264.40 315.70 L 260.30 312.80 L 256.00 310.30 L 251.60 308.10 L 246.90 306.30 L 242.10 304.90 L 237.20 303.90 L 232.30 303.30 L 227.40 303.10 L 222.40 303.30 L 219.80 302.30 L 217.70 301.90 L 216.00 302.00 L 214.40 302.50 L 213.00 303.30 L 211.90 304.50 L 210.70 306.60 L 210.00 309.10 L 209.80 311.80 L 210.20 314.40 L 211.50 317.50 L 213.70 319.60 L 215.10 320.10 L 216.80 320.30 L 218.50 320.10 L 220.50 319.30 L 223.00 317.80 Z M 168.80 363.20 L 167.60 366.30 L 166.80 369.20 L 166.40 372.00 L 166.50 374.80 L 167.10 378.40 L 168.30 381.90 L 170.10 385.20 L 172.30 388.30 L 174.90 391.20 L 177.90 393.90 L 184.60 398.40 L 192.00 401.70 L 199.30 403.60 L 188.80 389.10 L 185.50 384.00 L 182.50 378.70 L 180.20 373.40 L 179.00 369.70 L 178.20 366.00 L 177.90 362.20 L 178.10 358.40 L 178.80 354.40 L 180.20 350.30 L 184.30 344.40 L 188.70 339.00 L 193.50 333.90 L 198.70 329.20 L 204.20 324.80 L 210.20 320.90 L 200.90 303.50 L 192.50 308.20 L 188.40 311.10 L 180.70 317.90 L 177.20 321.80 L 174.10 325.90 L 171.40 330.20 L 169.20 334.60 L 167.50 339.30 L 166.40 343.90 L 165.90 348.70 L 165.90 352.30 L 166.40 355.90 L 167.40 359.50 L 168.80 363.20 Z M 413.20 431.60 L 411.80 446.90 L 410.90 462.20 L 410.70 477.50 L 425.00 479.00 L 433.20 479.20 L 439.30 478.00 L 442.00 476.80 L 444.50 474.90 L 449.10 470.10 L 450.80 467.70 L 452.10 465.10 L 453.80 459.60 L 454.30 452.20 L 454.00 447.70 L 452.70 439.00 L 450.80 436.40 L 448.80 434.40 L 446.60 432.80 L 441.70 430.90 L 434.80 430.10 L 413.20 431.60 Z M 403.00 508.70 L 391.50 533.10 L 379.30 557.20 L 399.00 559.60 L 403.90 559.80 L 408.80 559.40 L 411.90 558.70 L 415.00 557.70 L 418.10 556.20 L 422.70 552.90 L 424.60 550.90 L 427.00 547.50 L 429.00 543.70 L 435.40 528.00 L 430.70 523.60 L 425.70 519.70 L 420.40 516.30 L 414.90 513.20 L 409.10 510.70 L 403.00 508.70 Z M 85.40 649.10 L 81.30 665.90 L 79.90 674.40 L 79.10 683.00 L 79.10 688.70 L 79.40 694.30 L 80.20 700.00 L 81.50 705.50 L 83.30 710.90 L 85.70 716.40 L 92.40 716.40 L 99.10 716.00 L 105.70 715.20 L 115.40 713.00 L 124.80 709.30 L 126.40 705.80 L 128.50 698.80 L 129.10 695.20 L 129.20 690.50 L 128.80 685.80 L 127.90 681.20 L 126.40 676.70 L 124.40 672.40 L 122.00 668.40 L 119.20 664.60 L 116.00 661.10 L 112.40 658.00 L 108.60 655.20 L 104.40 653.00 L 99.90 651.20 L 95.30 649.90 L 90.40 649.20 L 85.40 649.10 Z M 264.50 695.00 L 263.60 712.90 L 263.40 748.60 L 258.20 736.60 L 259.50 729.70 L 261.00 715.70 L 261.40 705.20 L 261.20 694.70 L 245.20 699.20 L 245.50 708.60 L 245.20 727.30 L 244.30 741.40 L 240.60 783.40 L 239.80 797.40 L 239.60 811.50 L 253.10 807.30 L 261.20 807.80 L 263.10 809.00 L 264.80 809.60 L 266.40 809.60 L 269.40 808.40 L 270.70 807.20 L 272.30 804.90 L 273.40 802.30 L 273.80 800.30 L 273.80 796.60 L 273.20 794.80 L 272.30 793.30 L 271.00 791.90 L 272.30 738.90 L 273.40 721.20 L 274.60 709.50 L 276.30 697.90 L 278.40 686.20 L 264.50 695.00 Z M 769.00 831.00 L 790.40 831.70 L 785.30 822.50 L 793.30 821.50 L 792.00 807.40 L 798.80 822.30 L 795.60 831.50 L 812.40 831.10 L 817.70 814.80 L 818.60 832.20 L 825.30 831.90 L 819.40 798.60 L 808.50 815.10 L 805.50 803.90 L 801.90 792.90 L 817.40 799.20 L 805.50 776.70 L 800.10 781.70 L 795.00 787.00 L 790.30 792.60 L 786.00 798.50 L 782.00 804.60 L 778.30 811.00 L 774.90 817.50 L 769.00 831.00 Z M 276.20 882.10 L 286.30 898.30 L 289.90 909.10 L 301.10 898.30 L 324.70 878.40 L 332.00 875.50 L 327.10 873.80 L 322.40 872.50 L 317.60 871.70 L 312.90 871.40 L 303.40 872.00 L 294.00 874.10 L 287.90 876.30 L 282.00 879.00 L 276.20 882.10 Z M 607.90 885.60 L 600.40 885.00 L 602.80 887.80 L 605.40 890.10 L 608.30 892.20 L 612.90 894.80 L 617.90 897.10 L 633.50 903.10 L 641.80 907.10 L 647.70 911.40 L 650.20 914.00 L 652.60 917.00 L 654.70 920.50 L 662.80 910.30 L 666.30 904.80 L 669.20 899.00 L 670.80 895.00 L 672.90 886.50 L 669.20 886.90 L 665.90 883.40 L 662.40 880.50 L 658.60 878.20 L 654.60 876.40 L 650.40 875.10 L 646.00 874.20 L 641.60 873.90 L 637.10 874.00 L 632.60 874.50 L 628.10 875.50 L 623.80 876.80 L 615.40 880.60 L 607.90 885.60 Z M 267.40 898.70 L 266.60 900.30 L 266.10 903.70 L 266.60 906.40 L 267.80 909.00 L 269.40 911.30 L 271.50 913.30 L 273.80 914.80 L 276.30 915.60 L 279.80 915.60 L 281.50 915.00 L 282.50 911.80 L 282.50 909.90 L 282.00 907.20 L 280.90 904.50 L 279.30 902.10 L 275.80 898.90 L 272.50 897.70 L 270.90 897.60 L 269.20 897.90 L 267.40 898.70 Z M 666.10 917.50 L 664.70 920.90 L 664.20 923.20 L 664.30 924.60 L 664.80 925.50 L 665.80 926.10 L 667.30 926.20 L 669.70 925.80 L 673.40 924.50 L 674.90 921.00 L 675.30 918.80 L 675.20 917.30 L 674.70 916.40 L 673.80 915.90 L 672.20 915.70 L 669.80 916.10 L 666.10 917.50 Z" fill="#2f3436" fill-rule="nonzero" node-id="76" stroke="none" target-height="879.9" target-width="819.7" target-x="67" target-y="72.1"></path><path d="M 690.70 161.20 L 694.80 157.70 L 698.50 153.80 L 701.60 149.70 L 706.70 140.60 L 711.70 128.20 L 719.70 105.70 L 720.80 114.50 L 721.50 123.20 L 721.80 132.00 L 721.50 140.70 L 720.80 149.40 L 719.60 158.10 L 717.90 166.60 L 715.80 175.10 L 713.30 183.50 L 710.30 191.70 L 706.80 199.80 L 703.00 207.80 L 695.70 179.00 L 690.70 161.20 Z" fill="#99dde3" fill-rule="nonzero" node-id="78" stroke="none" target-height="102.100006" target-width="31.099976" target-x="690.7" target-y="105.7"></path><path d="M 332.70 832.10 L 332.10 829.50 L 331.80 826.80 L 332.00 824.10 L 333.50 818.90 L 334.70 816.50 L 337.90 812.20 L 342.10 809.00 L 344.40 808.00 L 346.90 807.40 L 349.40 807.20 L 352.00 807.60 L 357.60 809.40 L 359.80 810.50 L 361.40 811.90 L 362.60 813.70 L 363.50 815.60 L 364.10 817.80 L 364.40 821.30 L 364.30 825.00 L 363.00 839.80 L 356.20 842.30 L 352.40 843.10 L 348.60 843.40 L 344.80 843.30 L 341.40 842.60 L 339.20 841.70 L 337.30 840.50 L 335.70 839.00 L 334.40 837.20 L 333.40 834.90 L 332.70 832.10 Z M 338.50 816.30 L 338.30 828.20 L 338.60 831.10 L 339.20 833.50 L 339.90 835.00 L 340.90 836.10 L 342.20 837.00 L 343.70 837.50 L 345.80 837.60 L 353.10 837.30 L 354.60 836.70 L 356.80 834.60 L 358.30 830.60 L 359.30 816.30 L 338.50 816.30 Z" fill="#3d3a4f" fill-rule="nonzero" node-id="80" stroke="none" target-height="36.200012" target-width="32.600006" target-x="331.8" target-y="807.2"></path><path d="M 714.10 280.10 L 717.00 280.20 L 719.20 280.90 L 721.00 282.00 L 722.40 283.50 L 723.40 285.40 L 724.30 289.90 L 724.00 294.90 L 723.00 298.70 L 721.50 302.30 L 720.10 304.50 L 717.10 307.90 L 712.10 308.30 L 708.90 307.20 L 707.30 305.80 L 706.10 303.90 L 705.30 301.70 L 705.00 299.20 L 705.50 293.80 L 707.30 288.30 L 710.30 283.40 L 712.10 281.50 L 714.10 280.10 Z" fill="#37384d" fill-rule="nonzero" node-id="82" stroke="none" target-height="28.199982" target-width="19.299988" target-x="705" target-y="280.1"></path><path d="M 776.70 842.80 L 785.30 851.10 L 793.70 859.60 L 801.80 868.40 L 798.30 868.10 L 791.50 866.40 L 788.30 865.10 L 785.40 863.40 L 782.80 861.40 L 780.50 859.10 L 778.70 856.40 L 777.30 853.50 L 776.30 848.60 L 776.70 842.80 Z" fill="#37384d" fill-rule="nonzero" node-id="84" stroke="none" target-height="25.600037" target-width="25.5" target-x="776.3" target-y="842.8"></path><path d="M 457.00 184.10 L 455.70 178.40 L 454.90 172.70 L 454.60 167.10 L 455.30 155.80 L 457.90 141.80 L 464.50 117.00 L 465.70 124.50 L 467.50 131.70 L 469.90 138.70 L 472.80 145.50 L 476.30 152.00 L 480.30 158.30 L 484.70 164.30 L 489.60 170.00 L 484.10 191.40 L 479.40 213.10 L 476.00 213.30 L 473.30 213.00 L 470.90 212.30 L 468.80 211.00 L 466.90 209.40 L 465.20 207.50 L 463.20 204.10 L 461.50 200.20 L 457.00 184.10 Z" fill="#64cedf" fill-rule="nonzero" node-id="86" stroke="none" target-height="96.3" target-width="35" target-x="454.6" target-y="117"></path><path d="M 645.20 127.90 L 648.60 126.70 L 652.30 125.80 L 656.00 125.40 L 663.60 125.60 L 667.30 126.30 L 671.00 127.40 L 674.30 128.80 L 677.40 130.60 L 680.30 132.80 L 682.70 135.40 L 684.70 138.30 L 685.90 140.70 L 687.40 146.20 L 687.60 149.40 L 677.30 166.40 L 690.70 161.20 L 693.00 169.50 L 685.40 169.90 L 674.60 172.60 L 664.00 175.70 L 654.30 198.60 L 652.30 183.60 L 649.90 183.40 L 647.60 183.70 L 645.60 184.30 L 642.70 186.00 L 640.00 188.10 L 635.00 192.80 L 616.90 197.80 L 605.00 182.30 L 607.80 170.90 L 612.00 159.70 L 614.70 154.40 L 617.80 149.30 L 621.30 144.50 L 625.20 140.20 L 629.50 136.30 L 633.00 133.70 L 636.80 131.40 L 640.80 129.50 L 645.20 127.90 Z M 638.00 145.40 L 634.10 151.40 L 631.60 157.80 L 630.20 164.60 L 629.80 169.80 L 629.90 175.10 L 653.00 180.00 L 658.50 169.30 L 664.80 144.60 L 670.20 144.30 L 668.80 141.70 L 667.20 140.00 L 665.50 138.80 L 663.60 138.10 L 661.50 137.80 L 659.10 137.90 L 655.60 138.60 L 651.80 139.90 L 638.00 145.40 Z" fill="#43383b" fill-rule="nonzero" node-id="88" stroke="none" target-height="73.200005" target-width="88" target-x="605" target-y="125.4"></path><path d="M 515.60 123.40 L 520.80 123.40 L 525.70 124.00 L 530.40 125.10 L 535.00 126.80 L 539.30 128.90 L 543.20 131.50 L 546.80 134.50 L 550.10 137.90 L 552.90 141.60 L 555.30 145.70 L 557.20 150.00 L 558.60 154.60 L 559.40 159.40 L 559.70 164.30 L 559.30 169.60 L 554.90 169.20 L 550.90 168.30 L 547.30 167.00 L 543.90 165.10 L 540.80 162.90 L 537.90 160.30 L 534.00 155.90 L 530.40 151.00 L 524.00 140.70 L 515.60 123.40 Z" fill="#f6a9bf" fill-rule="nonzero" node-id="90" stroke="none" target-height="46.200005" target-width="44.100037" target-x="515.6" target-y="123.4"></path><path d="M 524.00 140.70 L 530.40 151.00 L 534.00 155.90 L 537.90 160.30 L 540.80 162.90 L 543.90 165.10 L 547.30 167.00 L 550.90 168.30 L 554.90 169.20 L 559.30 169.60 L 558.10 183.10 L 557.50 186.50 L 556.60 189.50 L 555.70 191.30 L 553.20 194.40 L 551.50 195.50 L 549.30 196.30 L 546.60 196.90 L 543.70 180.50 L 520.30 171.80 L 523.50 156.40 L 524.10 151.20 L 524.30 146.00 L 524.00 140.70 Z" fill="#c67482" fill-rule="nonzero" node-id="92" stroke="none" target-height="56.199997" target-width="39" target-x="520.3" target-y="140.7"></path><path d="M 629.90 175.10 L 629.80 169.80 L 630.20 164.60 L 631.60 157.80 L 634.10 151.40 L 638.00 145.40 L 644.00 162.40 L 658.50 169.30 L 653.00 180.00 L 629.90 175.10 Z" fill="#b15e67" fill-rule="nonzero" node-id="94" stroke="none" target-height="34.600006" target-width="28.700012" target-x="629.8" target-y="145.4"></path><path d="M 638.00 145.40 L 664.80 144.60 L 658.50 169.30 L 644.00 162.40 L 638.00 145.40 Z" fill="#f49190" fill-rule="nonzero" node-id="96" stroke="none" target-height="24.699997" target-width="26.799988" target-x="638" target-y="144.6"></path><path d="M 664.00 175.70 L 674.60 172.60 L 685.40 169.90 L 690.70 199.40 L 665.80 198.90 L 664.00 175.70 Z" fill="#c4e5ea" fill-rule="nonzero" node-id="98" stroke="none" target-height="29.5" target-width="26.700012" target-x="664" target-y="169.9"></path><path d="M 496.20 175.50 L 502.80 178.70 L 509.60 181.50 L 523.60 186.00 L 537.80 190.10 L 534.50 193.10 L 531.00 195.50 L 527.30 197.40 L 523.40 199.00 L 515.10 201.30 L 495.70 204.50 L 489.50 205.80 L 490.30 198.00 L 491.60 190.30 L 494.40 180.40 L 496.20 175.50 Z" fill="#d8e6ed" fill-rule="nonzero" node-id="100" stroke="none" target-height="30.300003" target-width="48.299988" target-x="489.5" target-y="175.5"></path><path d="M 635.00 192.80 L 640.00 188.10 L 642.70 186.00 L 645.60 184.30 L 647.60 183.70 L 649.90 183.40 L 652.30 183.60 L 654.30 198.60 L 650.70 198.80 L 647.40 198.50 L 644.10 197.80 L 641.00 196.60 L 638.00 194.90 L 635.00 192.80 Z" fill="#ffdbc2" fill-rule="nonzero" node-id="102" stroke="none" target-height="15.400009" target-width="19.299988" target-x="635" target-y="183.4"></path><path d="M 640.30 330.90 L 645.60 323.10 L 656.90 307.90 L 656.50 314.90 L 655.40 321.90 L 654.30 325.00 L 652.80 327.60 L 651.50 329.00 L 649.90 330.10 L 648.00 331.00 L 646.00 331.40 L 643.40 331.40 L 640.30 330.90 Z" fill="#ffdbc2" fill-rule="nonzero" node-id="104" stroke="none" target-height="23.5" target-width="16.600037" target-x="640.3" target-y="307.9"></path><path d="M 866.40 742.90 L 891.40 737.00 L 883.60 749.60 L 875.40 762.00 L 866.70 774.10 L 859.00 766.40 L 855.50 762.40 L 852.10 758.10 L 849.20 753.60 L 846.80 748.70 L 850.30 750.50 L 861.00 757.00 L 863.40 758.20 L 868.40 759.40 L 870.90 759.30 L 873.50 758.70 L 876.40 757.40 L 866.40 742.90 Z" fill="#ffdbc2" fill-rule="nonzero" node-id="106" stroke="none" target-height="37.099976" target-width="44.600037" target-x="846.8" target-y="737"></path><path d="M 769.00 831.00 L 771.80 824.20 L 778.30 811.00 L 782.00 804.60 L 786.00 798.50 L 790.30 792.60 L 795.00 787.00 L 800.10 781.70 L 805.50 776.70 L 817.40 799.20 L 801.90 792.90 L 805.50 803.90 L 808.50 815.10 L 819.40 798.60 L 825.30 831.90 L 818.60 832.20 L 817.70 814.80 L 812.40 831.10 L 795.60 831.50 L 798.80 822.30 L 792.00 807.40 L 793.30 821.50 L 785.30 822.50 L 790.40 831.70 L 769.00 831.00 Z" fill="#ffdbc2" fill-rule="nonzero" node-id="108" stroke="none" target-height="55.5" target-width="56.299988" target-x="769" target-y="776.7"></path><path d="M 514.60 211.10 L 525.80 208.70 L 537.00 206.70 L 548.20 205.30 L 559.50 204.50 L 570.80 204.00 L 593.50 204.30 L 620.00 206.40 L 635.10 208.20 L 650.20 210.40 L 672.70 214.30 L 694.90 218.50 L 684.00 220.10 L 662.10 221.90 L 645.60 222.60 L 596.10 223.30 L 579.60 224.00 L 563.10 225.30 L 554.20 225.20 L 536.60 225.90 L 510.40 228.80 L 458.00 236.20 L 463.40 231.70 L 469.10 227.80 L 475.10 224.40 L 481.40 221.40 L 494.40 216.60 L 514.60 211.10 Z" fill="#c7e7f1" fill-rule="nonzero" node-id="110" stroke="none" target-height="32.199997" target-width="236.90002" target-x="458" target-y="204"></path><path d="M 563.10 225.30 L 579.60 224.00 L 596.10 223.30 L 645.60 222.60 L 662.10 221.90 L 684.00 220.10 L 699.50 217.70 L 725.70 226.90 L 720.40 229.50 L 709.30 231.10 L 698.80 234.20 L 692.10 236.90 L 685.60 240.00 L 679.20 243.60 L 669.90 249.50 L 634.50 274.30 L 591.70 302.90 L 597.40 302.60 L 602.90 301.70 L 608.10 300.20 L 618.10 296.20 L 623.00 293.60 L 630.00 289.30 L 657.10 269.60 L 663.90 265.20 L 673.50 272.10 L 652.80 292.00 L 645.60 298.20 L 635.40 305.90 L 626.10 311.50 L 617.90 315.00 L 611.60 317.10 L 605.20 318.80 L 579.10 324.30 L 583.30 326.60 L 587.60 328.20 L 592.00 329.40 L 601.00 330.50 L 612.50 330.00 L 633.10 326.90 L 641.50 346.60 L 665.60 329.50 L 676.00 336.80 L 681.50 340.10 L 687.20 342.90 L 691.10 344.40 L 695.10 345.40 L 699.20 346.00 L 705.30 345.70 L 711.90 343.80 L 716.60 342.00 L 720.90 339.70 L 724.80 337.10 L 728.40 334.10 L 731.60 330.70 L 737.30 323.20 L 739.70 319.10 L 742.40 313.30 L 744.70 307.30 L 746.50 301.00 L 747.90 294.60 L 749.40 282.10 L 752.70 299.50 L 755.60 316.90 L 763.50 305.00 L 765.00 299.60 L 765.80 294.30 L 766.10 289.00 L 765.80 283.70 L 765.20 278.40 L 764.20 273.10 L 762.00 265.30 L 759.40 257.70 L 765.30 250.60 L 769.40 256.00 L 772.90 261.50 L 775.80 267.30 L 778.20 273.20 L 780.10 279.30 L 781.50 285.50 L 782.40 291.80 L 782.80 298.20 L 782.80 304.70 L 782.30 311.10 L 781.40 317.50 L 780.10 323.90 L 778.30 330.20 L 773.70 342.40 L 767.70 354.20 L 764.10 359.70 L 760.30 364.90 L 756.10 369.90 L 751.60 374.70 L 746.90 379.00 L 741.90 383.10 L 730.00 391.00 L 723.20 394.60 L 716.20 397.60 L 709.00 400.10 L 701.60 402.00 L 694.10 403.40 L 686.50 404.30 L 678.90 404.60 L 671.20 404.50 L 663.50 403.80 L 655.90 402.70 L 648.30 401.20 L 640.80 399.10 L 633.40 396.70 L 626.20 393.90 L 619.20 390.60 L 612.30 386.90 L 605.80 382.90 L 599.50 378.60 L 575.90 359.90 L 565.50 352.70 L 556.70 348.10 L 552.20 346.30 L 547.50 345.10 L 542.80 344.40 L 535.50 344.50 L 527.70 346.20 L 522.90 348.30 L 518.70 350.80 L 514.90 353.80 L 511.50 357.20 L 508.40 360.90 L 505.80 365.00 L 503.50 369.20 L 499.80 378.50 L 497.80 385.70 L 496.50 393.10 L 495.60 400.50 L 495.20 407.70 L 497.90 418.60 L 501.00 429.40 L 504.60 440.00 L 508.60 450.50 L 513.10 460.80 L 517.90 470.90 L 523.10 480.80 L 528.70 490.60 L 534.70 500.10 L 547.60 518.50 L 554.50 527.40 L 569.20 544.30 L 577.00 552.40 L 594.10 569.20 L 602.80 578.70 L 608.40 585.30 L 613.50 592.10 L 618.20 599.20 L 621.40 604.70 L 626.80 616.30 L 628.90 622.40 L 630.70 638.20 L 633.00 653.80 L 638.30 685.00 L 639.90 708.30 L 640.10 737.60 L 638.70 790.30 L 638.00 809.10 L 636.70 819.40 L 634.70 827.30 L 633.20 831.10 L 631.20 834.80 L 625.90 843.20 L 621.10 853.30 L 618.30 861.30 L 616.00 869.40 L 596.90 881.20 L 587.50 887.40 L 592.30 891.30 L 602.30 898.10 L 633.80 916.10 L 643.70 922.90 L 648.30 926.80 L 649.60 928.40 L 650.20 929.90 L 650.40 931.10 L 649.60 933.60 L 648.70 934.80 L 646.90 936.20 L 644.70 937.50 L 642.20 938.40 L 637.30 939.30 L 630.20 939.10 L 620.80 938.00 L 616.30 936.90 L 610.50 934.90 L 604.90 932.50 L 599.40 929.50 L 588.90 922.60 L 576.60 912.50 L 555.70 893.50 L 550.70 889.60 L 545.50 886.40 L 540.10 883.80 L 534.50 881.70 L 528.70 880.10 L 522.80 879.00 L 510.80 877.70 L 495.40 877.80 L 486.10 878.40 L 458.80 881.00 L 449.40 881.50 L 411.80 882.10 L 402.50 882.60 L 393.10 883.60 L 389.20 884.70 L 385.60 886.00 L 382.30 887.70 L 377.60 890.80 L 373.30 894.50 L 369.20 898.40 L 357.20 911.10 L 353.00 915.10 L 348.50 918.60 L 342.00 922.50 L 338.40 924.00 L 333.60 925.20 L 324.00 926.50 L 316.60 926.70 L 294.60 925.90 L 296.50 921.60 L 301.30 914.10 L 304.10 910.70 L 308.20 906.50 L 312.70 902.70 L 317.40 899.10 L 324.90 894.10 L 348.00 880.20 L 344.70 876.50 L 341.30 873.20 L 337.50 870.50 L 333.50 868.20 L 329.30 866.30 L 325.00 864.70 L 318.20 862.80 L 311.20 861.50 L 297.10 859.90 L 293.30 845.50 L 290.00 830.80 L 287.20 816.10 L 285.50 804.90 L 283.10 782.60 L 282.50 771.40 L 282.30 760.20 L 282.50 749.00 L 283.20 737.90 L 284.30 726.70 L 286.00 715.70 L 288.20 704.70 L 290.90 693.70 L 294.20 682.80 L 297.50 674.00 L 301.10 665.40 L 305.10 657.10 L 309.50 648.90 L 315.80 638.30 L 322.50 627.90 L 329.70 617.80 L 341.00 603.00 L 376.60 560.00 L 384.50 561.40 L 392.30 562.40 L 400.20 562.90 L 408.10 562.90 L 415.90 562.20 L 423.80 560.90 L 433.20 545.50 L 435.10 541.50 L 436.40 537.30 L 436.90 534.50 L 437.00 531.50 L 436.10 525.20 L 435.20 522.50 L 433.90 520.30 L 430.30 516.50 L 428.00 515.00 L 424.30 513.10 L 420.20 511.60 L 407.80 507.50 L 404.20 506.00 L 405.70 496.50 L 409.10 485.00 L 411.80 478.30 L 420.60 481.50 L 425.40 483.00 L 430.20 484.00 L 433.40 484.30 L 436.50 484.10 L 441.50 482.90 L 445.50 480.40 L 450.30 476.00 L 452.70 473.30 L 454.70 470.30 L 456.30 467.10 L 457.50 463.80 L 458.30 460.20 L 459.00 453.00 L 458.90 449.30 L 458.20 443.80 L 457.00 438.50 L 455.00 435.60 L 452.90 433.20 L 450.60 431.20 L 448.10 429.50 L 444.50 427.80 L 440.60 426.70 L 436.50 426.00 L 428.00 425.80 L 423.70 426.30 L 417.30 427.40 L 411.40 428.90 L 409.80 395.30 L 409.50 378.10 L 409.80 360.80 L 410.30 349.30 L 411.30 337.90 L 412.80 326.60 L 414.70 315.40 L 417.30 304.40 L 420.40 293.70 L 423.20 285.80 L 426.50 278.20 L 430.10 270.70 L 434.20 263.30 L 438.80 256.30 L 443.90 249.50 L 449.50 242.90 L 455.80 236.50 L 523.50 227.20 L 545.40 225.40 L 563.10 225.30 Z M 505.20 309.50 L 521.40 315.70 L 523.60 315.40 L 527.10 313.60 L 529.30 311.60 L 531.30 309.10 L 536.70 300.90 L 538.70 298.60 L 524.00 297.80 L 519.40 298.10 L 516.50 298.70 L 513.70 299.80 L 511.20 301.20 L 509.50 302.60 L 506.50 306.70 L 505.20 309.50 Z M 530.00 320.90 L 530.90 323.90 L 531.90 325.90 L 533.10 327.20 L 534.40 328.00 L 536.00 328.20 L 537.90 328.00 L 540.20 327.10 L 543.10 325.30 L 542.30 322.30 L 541.20 320.30 L 540.00 319.00 L 538.70 318.20 L 537.10 318.00 L 535.30 318.20 L 533.00 319.10 L 530.00 320.90 Z M 748.50 355.80 L 751.50 355.50 L 754.10 354.90 L 756.40 353.90 L 758.50 352.60 L 760.90 350.40 L 762.90 347.70 L 764.50 344.60 L 766.60 337.90 L 767.30 330.60 L 766.70 323.80 L 763.70 325.50 L 761.00 327.40 L 758.80 329.60 L 755.20 334.60 L 752.00 341.70 L 750.60 346.30 L 748.50 355.80 Z M 432.00 383.30 L 435.70 383.90 L 438.90 383.90 L 441.70 383.40 L 444.30 382.40 L 446.60 381.10 L 448.50 379.30 L 451.60 374.90 L 453.60 369.40 L 454.50 363.50 L 454.50 358.90 L 453.90 354.40 L 430.80 345.70 L 425.80 349.00 L 423.60 351.20 L 419.90 356.30 L 417.30 362.00 L 416.50 364.80 L 415.90 370.50 L 416.30 373.10 L 417.00 375.60 L 418.20 377.80 L 419.90 379.60 L 422.10 381.30 L 424.70 382.40 L 427.90 383.10 L 432.00 383.30 Z M 344.80 637.70 L 342.80 640.30 L 341.30 643.00 L 340.20 645.80 L 339.10 650.20 L 338.60 654.70 L 338.60 659.40 L 339.90 673.30 L 354.80 680.40 L 374.90 672.20 L 375.90 665.70 L 376.70 652.70 L 376.20 639.70 L 375.50 633.20 L 358.80 631.20 L 353.40 631.60 L 350.90 632.30 L 348.70 633.50 L 346.60 635.20 L 344.80 637.70 Z M 523.80 663.60 L 520.90 665.30 L 518.50 667.20 L 516.50 669.30 L 514.90 671.60 L 513.20 675.00 L 512.10 678.70 L 511.60 682.60 L 511.60 686.60 L 512.10 690.60 L 513.10 694.70 L 514.60 698.60 L 516.40 702.30 L 518.70 705.70 L 521.30 708.80 L 524.20 711.50 L 527.40 713.60 L 540.70 720.10 L 547.60 722.90 L 554.70 725.20 L 564.30 727.30 L 571.90 728.20 L 576.50 727.70 L 581.30 725.40 L 583.70 723.50 L 586.00 721.20 L 589.10 717.40 L 596.70 705.00 L 600.40 696.70 L 603.40 687.30 L 604.40 681.00 L 604.10 675.00 L 603.30 672.20 L 602.00 669.70 L 600.80 668.00 L 597.20 664.90 L 594.70 663.50 L 589.10 661.30 L 583.30 659.60 L 577.50 658.30 L 571.50 657.40 L 565.40 657.00 L 553.30 657.20 L 547.20 657.90 L 539.10 659.30 L 531.30 661.20 L 523.80 663.60 Z M 422.60 764.00 L 430.30 766.00 L 437.90 766.50 L 443.00 766.00 L 448.00 765.00 L 452.80 763.50 L 457.50 761.40 L 461.90 758.90 L 466.10 755.90 L 469.90 752.50 L 473.40 748.80 L 476.50 744.70 L 479.10 740.30 L 481.20 735.70 L 482.80 730.90 L 484.00 723.30 L 483.70 715.30 L 477.30 711.80 L 470.60 708.70 L 463.70 706.10 L 456.60 703.90 L 449.40 702.30 L 442.20 701.10 L 434.80 700.30 L 427.50 700.10 L 420.10 700.20 L 416.50 701.40 L 413.40 703.00 L 410.60 704.90 L 408.30 707.10 L 406.10 709.60 L 402.90 715.30 L 401.70 718.40 L 400.70 722.80 L 400.20 727.30 L 400.20 732.00 L 400.80 736.70 L 401.80 741.20 L 403.40 745.60 L 405.50 749.80 L 408.00 753.60 L 411.00 757.00 L 413.50 759.30 L 416.30 761.20 L 419.30 762.80 L 422.60 764.00 Z M 324.50 767.40 L 327.70 769.20 L 331.20 770.50 L 334.80 771.30 L 338.50 771.70 L 346.10 771.60 L 357.20 769.80 L 359.50 767.60 L 361.20 765.20 L 362.40 762.70 L 363.80 757.30 L 363.90 749.90 L 363.10 736.70 L 342.20 728.40 L 338.70 729.10 L 335.60 730.20 L 332.70 731.60 L 330.10 733.40 L 327.70 735.40 L 323.90 740.20 L 321.40 745.80 L 320.60 748.80 L 320.30 755.00 L 320.70 758.10 L 321.50 761.20 L 322.70 764.30 L 324.50 767.40 Z M 526.40 783.80 L 524.40 787.80 L 522.90 791.90 L 521.90 796.30 L 521.40 800.80 L 521.40 805.30 L 521.80 809.90 L 522.60 814.50 L 523.90 818.90 L 525.60 823.10 L 527.70 827.20 L 530.20 830.90 L 533.00 834.20 L 536.20 837.20 L 539.70 839.70 L 543.60 841.70 L 546.60 842.80 L 553.30 843.90 L 561.80 843.80 L 566.30 843.20 L 570.60 842.10 L 574.70 840.30 L 578.60 838.20 L 582.20 835.60 L 585.50 832.60 L 588.60 829.30 L 593.90 821.80 L 597.80 813.60 L 601.20 803.30 L 602.10 797.40 L 601.40 793.00 L 600.50 791.00 L 599.10 789.20 L 597.00 787.40 L 591.40 784.90 L 579.90 781.10 L 568.00 778.70 L 562.00 778.10 L 556.00 777.90 L 550.00 778.20 L 544.00 778.90 L 538.10 780.00 L 532.20 781.70 L 526.40 783.80 Z M 440.20 799.70 L 436.90 800.80 L 434.10 802.10 L 431.70 803.80 L 429.70 805.60 L 427.50 808.60 L 425.80 811.80 L 424.70 815.40 L 424.00 819.20 L 423.90 823.10 L 424.30 827.10 L 425.10 831.10 L 426.30 834.90 L 428.00 838.70 L 430.00 842.30 L 432.40 845.50 L 435.10 848.30 L 438.20 850.80 L 441.40 852.70 L 445.00 854.10 L 447.80 854.60 L 450.60 854.80 L 453.70 854.60 L 460.10 853.40 L 465.60 851.60 L 468.00 850.10 L 471.00 847.80 L 473.60 845.10 L 475.90 842.00 L 477.80 838.60 L 479.30 835.00 L 480.40 831.20 L 481.10 827.20 L 481.40 823.30 L 481.20 819.40 L 480.70 815.50 L 479.60 811.80 L 476.90 805.40 L 475.30 803.10 L 473.50 801.30 L 471.30 799.80 L 468.80 798.70 L 466.10 797.90 L 461.90 797.30 L 457.40 797.20 L 448.30 798.10 L 440.20 799.70 Z M 332.70 832.10 L 333.40 834.90 L 334.40 837.20 L 335.70 839.00 L 339.20 841.70 L 341.40 842.60 L 344.80 843.30 L 348.60 843.40 L 352.40 843.10 L 356.20 842.30 L 363.00 839.80 L 364.30 825.00 L 364.40 821.30 L 364.10 817.80 L 363.50 815.60 L 362.60 813.70 L 361.40 811.90 L 359.80 810.50 L 357.60 809.40 L 352.00 807.60 L 349.40 807.20 L 346.90 807.40 L 344.40 808.00 L 342.10 809.00 L 337.90 812.20 L 334.70 816.50 L 333.50 818.90 L 332.00 824.10 L 331.80 826.80 L 332.10 829.50 L 332.70 832.10 Z" fill="#1eb0c1" fill-rule="nonzero" node-id="112" stroke="none" target-height="721.6" target-width="500.5" target-x="282.3" target-y="217.7"></path><path d="M 725.70 226.90 L 732.80 230.00 L 746.40 237.30 L 759.20 245.90 L 765.30 250.60 L 755.30 262.70 L 756.80 273.40 L 758.70 284.00 L 763.50 305.00 L 755.60 316.90 L 751.10 290.80 L 749.40 282.10 L 746.30 270.90 L 744.30 265.10 L 741.80 259.70 L 739.70 256.30 L 737.40 253.30 L 734.70 250.70 L 732.50 249.00 L 730.00 247.70 L 727.20 246.80 L 724.00 246.10 L 719.10 246.50 L 714.30 247.40 L 709.80 248.60 L 705.30 250.30 L 696.70 254.60 L 690.50 258.50 L 684.60 262.90 L 673.50 272.10 L 663.90 265.20 L 677.70 255.70 L 691.80 246.80 L 720.40 229.50 L 725.70 226.90 Z" fill="#248e9d" fill-rule="nonzero" node-id="114" stroke="none" target-height="90" target-width="101.39996" target-x="663.9" target-y="226.9"></path><path d="M 642.90 268.40 L 669.90 249.50 L 679.20 243.60 L 685.60 240.00 L 692.10 236.90 L 698.80 234.20 L 704.00 232.50 L 714.70 230.10 L 720.40 229.50 L 691.80 246.80 L 677.70 255.70 L 657.10 269.60 L 630.00 289.30 L 623.00 293.60 L 618.10 296.20 L 608.10 300.20 L 602.90 301.70 L 597.40 302.60 L 591.70 302.90 L 642.90 268.40 Z" fill="#1a5c64" fill-rule="nonzero" node-id="116" stroke="none" target-height="73.399994" target-width="128.70001" target-x="591.7" target-y="229.5"></path><path d="M 673.50 272.10 L 684.60 262.90 L 690.50 258.50 L 700.90 252.30 L 709.80 248.60 L 714.30 247.40 L 719.10 246.50 L 724.00 246.10 L 727.20 246.80 L 730.00 247.70 L 732.50 249.00 L 734.70 250.70 L 737.40 253.30 L 739.70 256.30 L 741.80 259.70 L 744.30 265.10 L 746.30 270.90 L 749.40 282.10 L 748.80 288.40 L 746.50 301.00 L 744.70 307.30 L 742.40 313.30 L 739.70 319.10 L 737.30 323.20 L 734.60 327.10 L 728.40 334.10 L 724.80 337.10 L 720.90 339.70 L 716.60 342.00 L 708.50 345.00 L 705.30 345.70 L 699.20 346.00 L 695.10 345.40 L 691.10 344.40 L 687.20 342.90 L 681.50 340.10 L 676.00 336.80 L 665.60 329.50 L 641.50 346.60 L 633.10 326.90 L 612.50 330.00 L 601.00 330.50 L 592.00 329.40 L 587.60 328.20 L 583.30 326.60 L 579.10 324.30 L 605.20 318.80 L 611.60 317.10 L 617.90 315.00 L 626.10 311.50 L 635.40 305.90 L 645.60 298.20 L 652.80 292.00 L 673.50 272.10 Z M 707.60 262.70 L 698.20 268.20 L 693.80 271.50 L 685.70 278.80 L 682.10 282.90 L 678.70 287.20 L 672.80 296.40 L 672.50 300.40 L 672.90 304.50 L 673.80 308.70 L 675.20 312.80 L 677.10 316.70 L 679.40 320.40 L 682.20 323.80 L 685.20 326.80 L 688.60 329.30 L 691.30 330.90 L 697.00 333.10 L 700.00 333.60 L 703.00 333.80 L 706.00 333.40 L 709.20 332.60 L 712.50 331.30 L 715.80 329.40 L 718.90 327.30 L 724.20 322.30 L 727.30 318.50 L 729.80 314.30 L 731.90 309.90 L 733.50 305.30 L 734.70 300.50 L 735.40 295.60 L 735.60 290.60 L 735.40 285.70 L 734.70 280.70 L 733.60 275.90 L 732.00 271.30 L 728.70 264.80 L 725.70 261.80 L 723.90 260.80 L 721.30 259.90 L 718.60 259.50 L 715.70 259.60 L 712.90 260.20 L 710.20 261.20 L 707.60 262.70 Z M 640.30 330.90 L 643.40 331.40 L 646.00 331.40 L 648.00 331.00 L 649.90 330.10 L 651.50 329.00 L 652.80 327.60 L 654.30 325.00 L 655.40 321.90 L 656.50 314.90 L 656.90 307.90 L 645.60 323.10 L 640.30 330.90 Z" fill="#2d3838" fill-rule="nonzero" node-id="118" stroke="none" target-height="100.5" target-width="170.30005" target-x="579.1" target-y="246.1"></path><path d="M 707.60 262.70 L 710.20 261.20 L 712.90 260.20 L 715.70 259.60 L 718.60 259.50 L 721.30 259.90 L 723.90 260.80 L 725.70 261.80 L 728.70 264.80 L 732.00 271.30 L 733.60 275.90 L 734.70 280.70 L 735.40 285.70 L 735.60 290.60 L 735.40 295.60 L 734.70 300.50 L 733.50 305.30 L 731.90 309.90 L 729.80 314.30 L 727.30 318.50 L 724.20 322.30 L 721.70 324.90 L 715.80 329.40 L 712.50 331.30 L 709.20 332.60 L 706.00 333.40 L 703.00 333.80 L 700.00 333.60 L 694.10 332.20 L 691.30 330.90 L 688.60 329.30 L 685.20 326.80 L 682.20 323.80 L 679.40 320.40 L 677.10 316.70 L 675.20 312.80 L 673.80 308.70 L 672.90 304.50 L 672.50 300.40 L 672.80 296.40 L 675.60 291.70 L 678.70 287.20 L 685.70 278.80 L 693.80 271.50 L 698.20 268.20 L 707.60 262.70 Z M 714.10 280.10 L 712.10 281.50 L 710.30 283.40 L 708.60 285.80 L 706.20 291.00 L 705.00 296.60 L 705.30 301.70 L 706.10 303.90 L 707.30 305.80 L 708.90 307.20 L 712.10 308.30 L 717.10 307.90 L 720.10 304.50 L 721.50 302.30 L 723.00 298.70 L 724.00 294.90 L 724.30 292.30 L 724.10 287.50 L 723.40 285.40 L 722.40 283.50 L 721.00 282.00 L 719.20 280.90 L 717.00 280.20 L 714.10 280.10 Z" fill="#fdfdfd" fill-rule="nonzero" node-id="120" stroke="none" target-height="74.29999" target-width="63.099976" target-x="672.5" target-y="259.5"></path><path d="M 755.30 262.70 L 759.40 257.70 L 762.00 265.30 L 764.20 273.10 L 765.20 278.40 L 765.80 283.70 L 766.10 289.00 L 765.80 294.30 L 765.00 299.60 L 763.50 305.00 L 758.70 284.00 L 756.80 273.40 L 755.30 262.70 Z" fill="#17505e" fill-rule="nonzero" node-id="122" stroke="none" target-height="47.299988" target-width="10.799988" target-x="755.3" target-y="257.7"></path><path d="M 440.20 799.70 L 448.30 798.10 L 457.40 797.20 L 461.90 797.30 L 466.10 797.90 L 468.80 798.70 L 471.30 799.80 L 473.50 801.30 L 475.30 803.10 L 476.90 805.40 L 478.20 808.30 L 479.60 811.80 L 480.70 815.50 L 481.20 819.40 L 481.40 823.30 L 481.10 827.20 L 480.40 831.20 L 479.30 835.00 L 477.80 838.60 L 475.90 842.00 L 473.60 845.10 L 471.00 847.80 L 468.00 850.10 L 462.90 852.70 L 453.70 854.60 L 450.60 854.80 L 447.80 854.60 L 445.00 854.10 L 441.40 852.70 L 438.20 850.80 L 435.10 848.30 L 432.40 845.50 L 430.00 842.30 L 428.00 838.70 L 426.30 834.90 L 425.10 831.10 L 424.30 827.10 L 423.90 823.10 L 424.00 819.20 L 424.70 815.40 L 425.80 811.80 L 427.50 808.60 L 429.70 805.60 L 431.70 803.80 L 434.10 802.10 L 436.90 800.80 L 440.20 799.70 Z M 434.30 810.40 L 432.50 813.10 L 431.20 816.00 L 430.40 819.10 L 430.20 822.30 L 430.30 825.50 L 431.90 832.00 L 434.90 837.90 L 436.90 840.60 L 441.60 845.00 L 444.30 846.70 L 447.10 847.90 L 450.20 848.70 L 453.20 848.90 L 456.40 848.40 L 462.60 846.10 L 465.00 844.60 L 467.00 842.90 L 468.80 840.90 L 470.60 838.00 L 472.10 834.80 L 473.00 831.30 L 473.80 824.00 L 473.60 820.20 L 473.10 816.50 L 471.40 809.60 L 468.80 807.50 L 466.00 805.90 L 462.90 804.80 L 456.40 803.70 L 453.00 803.80 L 449.60 804.20 L 443.10 805.90 L 439.90 807.20 L 434.30 810.40 Z" fill="#5c576a" fill-rule="nonzero" node-id="124" stroke="none" target-height="57.599976" target-width="57.5" target-x="423.9" target-y="797.2"></path><path d="M 505.20 309.50 L 506.50 306.70 L 509.50 302.60 L 511.20 301.20 L 513.70 299.80 L 516.50 298.70 L 519.40 298.10 L 524.00 297.80 L 538.70 298.60 L 536.70 300.90 L 531.30 309.10 L 529.30 311.60 L 527.10 313.60 L 523.60 315.40 L 521.40 315.70 L 505.20 309.50 Z" fill="#268794" fill-rule="nonzero" node-id="126" stroke="none" target-height="17.900024" target-width="33.5" target-x="505.2" target-y="297.8"></path><path d="M 223.00 317.80 L 220.50 319.30 L 218.50 320.10 L 216.80 320.30 L 215.10 320.10 L 213.70 319.60 L 212.50 318.70 L 210.80 316.10 L 209.80 311.80 L 210.00 309.10 L 210.70 306.60 L 211.90 304.50 L 213.00 303.30 L 214.40 302.50 L 216.00 302.00 L 217.70 301.90 L 219.80 302.30 L 222.40 303.30 L 223.00 317.80 Z" fill="#886758" fill-rule="nonzero" node-id="128" stroke="none" target-height="18.399994" target-width="13.199997" target-x="209.8" target-y="301.9"></path><path d="M 222.40 303.30 L 227.40 303.10 L 232.30 303.30 L 237.20 303.90 L 242.10 304.90 L 246.90 306.30 L 251.60 308.10 L 256.00 310.30 L 260.30 312.80 L 264.40 315.70 L 268.10 318.90 L 271.60 322.50 L 274.70 326.40 L 265.00 339.10 L 258.90 333.90 L 252.40 329.10 L 243.30 323.80 L 238.50 321.70 L 233.50 319.90 L 228.40 318.60 L 223.00 317.80 L 222.40 303.30 Z" fill="#338285" fill-rule="nonzero" node-id="130" stroke="none" target-height="36" target-width="52.30002" target-x="222.4" target-y="303.1"></path><path d="M 168.80 363.20 L 167.40 359.50 L 166.40 355.90 L 165.90 352.30 L 165.90 348.70 L 166.40 343.90 L 167.50 339.30 L 169.20 334.60 L 171.40 330.20 L 174.10 325.90 L 177.20 321.80 L 180.70 317.90 L 188.40 311.10 L 192.50 308.20 L 200.90 303.50 L 210.20 320.90 L 204.20 324.80 L 198.70 329.20 L 193.50 333.90 L 188.70 339.00 L 184.30 344.40 L 180.20 350.30 L 168.80 363.20 Z" fill="#238a9e" fill-rule="nonzero" node-id="132" stroke="none" target-height="59.700012" target-width="44.300003" target-x="165.9" target-y="303.5"></path><path d="M 530.00 320.90 L 533.00 319.10 L 535.30 318.20 L 537.10 318.00 L 538.70 318.20 L 540.00 319.00 L 541.20 320.30 L 542.30 322.30 L 543.10 325.30 L 540.20 327.10 L 537.90 328.00 L 536.00 328.20 L 534.40 328.00 L 533.10 327.20 L 531.90 325.90 L 530.90 323.90 L 530.00 320.90 Z" fill="#227788" fill-rule="nonzero" node-id="134" stroke="none" target-height="10.200012" target-width="13.099976" target-x="530" target-y="318"></path><path d="M 274.70 326.40 L 275.70 325.10 L 288.30 348.70 L 267.50 348.90 L 265.00 339.10 L 274.70 326.40 Z" fill="#746869" fill-rule="nonzero" node-id="136" stroke="none" target-height="23.799988" target-width="23.299988" target-x="265" target-y="325.1"></path><path d="M 748.50 355.80 L 750.60 346.30 L 752.00 341.70 L 755.20 334.60 L 758.80 329.60 L 761.00 327.40 L 763.70 325.50 L 766.70 323.80 L 767.30 330.60 L 766.60 337.90 L 764.50 344.60 L 762.90 347.70 L 760.90 350.40 L 758.50 352.60 L 756.40 353.90 L 754.10 354.90 L 751.50 355.50 L 748.50 355.80 Z" fill="#1f7283" fill-rule="nonzero" node-id="138" stroke="none" target-height="32" target-width="18.799988" target-x="748.5" target-y="323.8"></path><path d="M 168.80 363.20 L 180.20 350.30 L 178.80 354.40 L 178.10 358.40 L 177.90 362.20 L 178.20 366.00 L 179.00 369.70 L 180.20 373.40 L 182.50 378.70 L 185.50 384.00 L 188.80 389.10 L 199.30 403.60 L 192.00 401.70 L 184.60 398.40 L 177.90 393.90 L 174.90 391.20 L 172.30 388.30 L 170.10 385.20 L 168.30 381.90 L 167.10 378.40 L 166.50 374.80 L 166.40 372.00 L 166.80 369.20 L 167.60 366.30 L 168.80 363.20 Z" fill="#f76f7b" fill-rule="nonzero" node-id="140" stroke="none" target-height="53.30002" target-width="32.90001" target-x="166.4" target-y="350.3"></path><path d="M 338.50 816.30 L 359.30 816.30 L 358.30 830.60 L 356.80 834.60 L 354.60 836.70 L 353.10 837.30 L 345.80 837.60 L 343.70 837.50 L 342.20 837.00 L 340.90 836.10 L 339.90 835.00 L 339.20 833.50 L 338.60 831.10 L 338.30 828.20 L 338.50 816.30 Z" fill="#f76f7b" fill-rule="nonzero" node-id="142" stroke="none" target-height="21.299988" target-width="21" target-x="338.3" target-y="816.3"></path><path d="M 272.10 349.00 L 288.30 348.70 L 290.60 359.80 L 292.60 371.40 L 294.40 387.00 L 294.90 402.80 L 294.50 410.60 L 293.70 418.40 L 292.40 426.00 L 290.50 433.50 L 288.10 440.70 L 285.90 446.00 L 283.20 451.20 L 280.20 456.20 L 268.70 471.70 L 261.20 482.50 L 246.60 504.70 L 241.70 510.70 L 234.40 516.90 L 220.00 526.90 L 215.50 530.50 L 211.20 534.50 L 189.50 557.60 L 167.40 580.40 L 155.90 591.40 L 144.10 602.00 L 146.30 604.50 L 147.60 606.40 L 148.20 607.90 L 148.30 609.50 L 148.00 610.90 L 147.20 612.10 L 145.30 613.60 L 142.60 615.00 L 129.40 619.00 L 123.90 621.20 L 138.40 626.70 L 121.10 643.60 L 119.50 645.70 L 117.50 647.40 L 115.20 648.80 L 112.70 649.80 L 107.40 650.70 L 104.70 650.60 L 100.00 649.40 L 97.90 648.20 L 96.30 646.60 L 95.10 644.70 L 94.40 641.20 L 95.10 636.40 L 99.10 621.70 L 104.60 607.40 L 108.00 600.50 L 111.70 593.80 L 115.70 587.30 L 120.20 581.10 L 124.90 575.10 L 130.10 569.40 L 135.50 564.10 L 141.40 559.10 L 152.80 549.30 L 200.40 510.70 L 219.40 493.80 L 233.60 479.40 L 240.30 471.80 L 246.50 464.00 L 252.40 455.80 L 256.50 449.50 L 263.90 436.10 L 267.20 429.00 L 269.80 422.60 L 271.90 416.10 L 273.30 409.60 L 274.30 403.00 L 274.90 396.30 L 275.10 389.50 L 274.80 379.40 L 274.10 369.20 L 272.10 349.00 Z" fill="#25a7b3" fill-rule="nonzero" node-id="144" stroke="none" target-height="302" target-width="200.5" target-x="94.4" target-y="348.7"></path><path d="M 432.00 383.30 L 427.90 383.10 L 424.70 382.40 L 422.10 381.30 L 419.90 379.60 L 418.20 377.80 L 417.00 375.60 L 416.30 373.10 L 415.90 370.50 L 416.50 364.80 L 417.30 362.00 L 419.90 356.30 L 423.60 351.20 L 425.80 349.00 L 430.80 345.70 L 453.90 354.40 L 454.50 358.90 L 454.50 363.50 L 453.60 369.40 L 451.60 374.90 L 448.50 379.30 L 446.60 381.10 L 444.30 382.40 L 441.70 383.40 L 438.90 383.90 L 435.70 383.90 L 432.00 383.30 Z" fill="#e95e67" fill-rule="nonzero" node-id="146" stroke="none" target-height="38.19998" target-width="38.600006" target-x="415.9" target-y="345.7"></path><path d="M 797.70 423.50 L 800.70 421.20 L 807.20 417.60 L 810.70 416.40 L 815.50 415.20 L 820.30 414.60 L 825.30 414.60 L 830.30 415.10 L 835.10 416.20 L 839.90 417.70 L 844.40 419.80 L 848.60 422.30 L 852.50 425.30 L 875.20 445.20 L 882.30 452.30 L 886.80 457.20 L 890.80 462.50 L 894.40 468.00 L 896.80 472.30 L 898.80 476.80 L 900.50 481.60 L 903.40 493.00 L 904.60 499.60 L 905.30 506.30 L 905.50 513.10 L 905.10 519.80 L 904.20 526.50 L 902.80 533.10 L 900.80 539.50 L 898.30 545.60 L 896.00 550.00 L 890.50 558.10 L 887.30 561.90 L 883.70 565.30 L 879.80 568.40 L 875.60 571.10 L 870.90 573.60 L 866.90 575.20 L 863.00 576.30 L 859.20 576.90 L 855.40 577.10 L 851.50 576.90 L 844.00 575.30 L 840.40 574.00 L 835.70 571.80 L 831.30 569.00 L 827.10 565.80 L 823.20 562.10 L 819.80 558.20 L 816.70 553.80 L 814.10 549.20 L 811.90 544.50 L 810.40 539.50 L 811.40 536.40 L 812.50 534.30 L 813.60 532.90 L 815.00 531.90 L 816.40 531.30 L 818.10 531.10 L 820.60 531.50 L 823.50 532.60 L 836.00 538.80 L 839.20 539.90 L 842.40 540.40 L 844.50 540.40 L 846.50 539.90 L 848.50 538.90 L 851.00 534.20 L 852.90 529.40 L 854.30 524.30 L 856.10 513.90 L 856.40 508.60 L 856.30 500.60 L 855.60 492.80 L 853.20 488.00 L 849.80 484.30 L 847.10 482.40 L 844.10 480.80 L 840.70 479.60 L 833.70 478.30 L 830.10 478.10 L 824.80 478.40 L 819.90 479.30 L 814.70 481.10 L 809.80 483.30 L 805.20 486.00 L 800.90 489.10 L 796.80 492.70 L 793.10 496.50 L 789.70 500.60 L 786.60 505.00 L 783.90 509.70 L 781.60 514.50 L 779.70 519.50 L 778.20 524.70 L 777.10 530.00 L 776.50 535.30 L 776.40 540.70 L 777.70 553.60 L 780.50 569.00 L 782.50 576.60 L 784.90 584.10 L 787.70 591.40 L 790.20 596.70 L 796.00 606.70 L 799.40 611.30 L 803.10 615.70 L 807.20 619.70 L 811.70 623.40 L 816.70 626.70 L 830.20 633.60 L 848.10 640.90 L 870.10 648.70 L 888.20 655.60 L 901.90 662.10 L 908.50 665.90 L 914.80 670.00 L 920.90 674.60 L 929.20 682.50 L 940.40 696.00 L 943.60 700.30 L 946.50 704.90 L 949.00 709.70 L 951.10 714.60 L 954.30 724.90 L 955.30 730.20 L 955.90 735.60 L 956.10 746.30 L 954.80 757.00 L 953.50 762.20 L 949.90 772.40 L 947.60 777.20 L 944.80 781.90 L 941.70 786.30 L 938.20 790.60 L 933.00 795.80 L 927.40 801.10 L 921.50 806.10 L 915.30 810.60 L 911.00 813.20 L 906.50 815.40 L 901.90 817.10 L 894.70 818.60 L 887.00 818.50 L 893.20 812.50 L 918.00 790.80 L 926.00 782.30 L 929.50 777.70 L 932.50 772.80 L 935.10 767.70 L 936.60 763.70 L 937.70 759.50 L 938.40 754.90 L 938.70 750.10 L 929.00 745.70 L 919.10 741.90 L 909.10 738.50 L 898.90 735.50 L 894.40 744.20 L 889.60 752.60 L 884.40 760.80 L 878.90 768.80 L 873.00 776.60 L 866.80 784.10 L 858.20 777.00 L 854.10 773.10 L 848.20 766.20 L 844.60 759.90 L 843.30 756.50 L 842.40 752.90 L 841.90 748.90 L 847.30 735.00 L 855.20 732.10 L 863.30 729.80 L 871.50 728.10 L 879.80 727.00 L 888.10 726.30 L 896.50 726.20 L 905.00 726.60 L 913.30 727.40 L 921.70 728.60 L 941.70 739.10 L 940.40 732.00 L 938.50 725.30 L 936.10 719.00 L 933.20 713.00 L 929.80 707.30 L 926.00 701.90 L 921.80 696.80 L 917.10 692.00 L 907.00 683.30 L 895.60 675.60 L 887.70 671.10 L 879.40 667.00 L 871.00 663.40 L 862.40 660.20 L 845.40 655.00 L 822.10 644.30 L 809.60 637.30 L 800.60 630.60 L 796.50 626.80 L 792.60 622.60 L 789.20 618.00 L 784.90 611.20 L 777.40 597.20 L 772.40 586.30 L 767.80 575.20 L 763.60 563.90 L 758.20 547.90 L 757.40 543.10 L 757.20 538.30 L 758.10 528.80 L 761.20 516.80 L 767.70 495.80 L 740.60 497.10 L 732.60 512.70 L 727.40 503.20 L 723.40 494.30 L 727.00 488.30 L 730.80 482.50 L 735.10 477.20 L 744.30 467.10 L 757.20 455.60 L 789.90 430.10 L 797.70 423.50 Z M 800.50 429.00 L 807.60 437.60 L 811.70 442.10 L 816.00 446.10 L 819.00 448.50 L 822.10 450.50 L 827.60 452.70 L 832.50 453.10 L 835.00 452.70 L 837.40 451.80 L 839.80 450.50 L 842.40 448.50 L 845.10 445.80 L 845.80 442.70 L 846.10 440.00 L 845.90 437.70 L 845.40 435.70 L 844.10 433.30 L 842.40 431.20 L 840.10 429.50 L 834.50 427.20 L 831.10 426.40 L 825.80 425.90 L 820.20 425.80 L 814.60 426.20 L 809.40 426.90 L 800.50 429.00 Z M 762.00 468.10 L 770.50 494.50 L 792.20 480.40 L 799.70 476.00 L 804.90 473.30 L 815.40 469.00 L 820.80 467.40 L 826.30 466.40 L 831.90 465.90 L 840.30 466.30 L 849.20 468.30 L 852.30 469.30 L 855.10 470.50 L 857.50 472.00 L 859.60 473.80 L 862.20 476.60 L 864.30 479.80 L 866.10 483.30 L 868.30 488.90 L 870.00 494.70 L 872.60 506.20 L 890.80 504.20 L 890.30 497.60 L 889.20 491.20 L 887.40 485.10 L 885.20 479.10 L 882.40 473.30 L 879.20 467.80 L 875.60 462.50 L 871.60 457.40 L 867.30 452.60 L 862.70 448.00 L 852.90 439.60 L 844.20 454.00 L 840.00 455.00 L 835.90 455.40 L 832.00 455.30 L 828.10 454.80 L 820.70 452.70 L 815.30 450.30 L 810.10 447.30 L 800.20 440.40 L 796.10 441.10 L 792.30 442.20 L 788.70 443.80 L 785.20 445.70 L 778.80 450.50 L 770.00 459.10 L 762.00 468.10 Z M 739.30 494.20 L 763.70 495.20 L 763.50 485.80 L 762.70 476.40 L 761.30 467.10 L 758.10 469.30 L 752.40 474.60 L 748.70 479.20 L 745.40 484.10 L 739.30 494.20 Z M 869.90 512.40 L 863.20 530.00 L 860.60 535.70 L 858.50 539.30 L 856.10 542.70 L 853.40 545.80 L 851.20 547.70 L 849.00 548.90 L 846.70 549.60 L 841.70 550.00 L 827.10 547.70 L 823.40 547.50 L 830.00 554.10 L 833.60 557.20 L 837.30 559.90 L 840.00 561.40 L 845.60 563.30 L 848.60 563.70 L 851.80 563.70 L 859.00 562.70 L 862.50 561.90 L 868.60 559.30 L 872.30 556.80 L 875.60 553.90 L 878.60 550.60 L 881.20 546.90 L 883.40 542.90 L 887.00 534.30 L 889.20 525.10 L 890.10 518.20 L 890.40 511.60 L 869.90 512.40 Z M 866.40 742.90 L 876.40 757.40 L 873.50 758.70 L 870.90 759.30 L 868.40 759.40 L 863.40 758.20 L 861.00 757.00 L 850.30 750.50 L 846.80 748.70 L 849.20 753.60 L 852.10 758.10 L 855.50 762.40 L 859.00 766.40 L 866.70 774.10 L 875.40 762.00 L 883.60 749.60 L 891.40 737.00 L 866.40 742.90 Z" fill="#303334" fill-rule="nonzero" node-id="148" stroke="none" target-height="403.99997" target-width="232.69995" target-x="723.4" target-y="414.6"></path><path d="M 800.50 429.00 L 809.40 426.90 L 814.60 426.20 L 820.20 425.80 L 825.80 425.90 L 831.10 426.40 L 837.50 428.20 L 840.10 429.50 L 842.40 431.20 L 844.10 433.30 L 845.40 435.70 L 845.90 437.70 L 845.80 442.70 L 845.10 445.80 L 842.40 448.50 L 839.80 450.50 L 837.40 451.80 L 835.00 452.70 L 830.10 453.10 L 825.20 451.90 L 822.10 450.50 L 819.00 448.50 L 816.00 446.10 L 811.70 442.10 L 807.60 437.60 L 800.50 429.00 Z" fill="#f05e73" fill-rule="nonzero" node-id="150" stroke="none" target-height="27.300018" target-width="45.400024" target-x="800.5" target-y="425.8"></path><path d="M 413.20 431.60 L 434.80 430.10 L 441.70 430.90 L 446.60 432.80 L 448.80 434.40 L 450.80 436.40 L 452.70 439.00 L 454.00 447.70 L 454.30 452.20 L 454.10 456.70 L 453.10 462.40 L 450.80 467.70 L 449.10 470.10 L 444.50 474.90 L 442.00 476.80 L 439.30 478.00 L 433.20 479.20 L 425.00 479.00 L 410.70 477.50 L 410.90 462.20 L 411.80 446.90 L 413.20 431.60 Z" fill="#eb6074" fill-rule="nonzero" node-id="152" stroke="none" target-height="49.100006" target-width="43.599976" target-x="410.7" target-y="430.1"></path><path d="M 762.00 468.10 L 770.00 459.10 L 778.80 450.50 L 785.20 445.70 L 788.70 443.80 L 792.30 442.20 L 796.10 441.10 L 800.20 440.40 L 810.10 447.30 L 815.30 450.30 L 820.70 452.70 L 828.10 454.80 L 832.00 455.30 L 835.90 455.40 L 840.00 455.00 L 844.20 454.00 L 852.90 439.60 L 862.70 448.00 L 867.30 452.60 L 871.60 457.40 L 875.60 462.50 L 879.20 467.80 L 882.40 473.30 L 885.20 479.10 L 887.40 485.10 L 889.20 491.20 L 890.30 497.60 L 890.80 504.20 L 872.60 506.20 L 870.00 494.70 L 868.30 488.90 L 866.10 483.30 L 864.30 479.80 L 862.20 476.60 L 859.60 473.80 L 857.50 472.00 L 855.10 470.50 L 852.30 469.30 L 849.20 468.30 L 840.30 466.30 L 831.90 465.90 L 826.30 466.40 L 820.80 467.40 L 815.40 469.00 L 804.90 473.30 L 792.20 480.40 L 770.50 494.50 L 762.00 468.10 Z" fill="#20aab8" fill-rule="nonzero" node-id="154" stroke="none" target-height="66.600006" target-width="128.79999" target-x="762" target-y="439.6"></path><path d="M 246.60 504.70 L 261.20 482.50 L 268.70 471.70 L 276.80 461.20 L 274.90 468.80 L 272.50 476.10 L 269.50 483.20 L 262.20 496.80 L 258.00 503.30 L 251.20 512.90 L 221.20 552.90 L 183.60 600.00 L 174.80 612.20 L 169.30 620.50 L 164.20 629.20 L 159.60 638.20 L 140.70 644.00 L 130.80 644.00 L 121.10 643.60 L 138.40 626.70 L 123.90 621.20 L 129.40 619.00 L 142.60 615.00 L 145.30 613.60 L 147.20 612.10 L 148.00 610.90 L 148.30 609.50 L 148.20 607.90 L 147.60 606.40 L 146.30 604.50 L 144.10 602.00 L 155.90 591.40 L 167.30 580.40 L 189.50 557.60 L 211.20 534.50 L 215.50 530.50 L 220.00 526.90 L 234.40 516.90 L 238.90 513.30 L 244.30 507.80 L 246.60 504.70 Z" fill="#2a9197" fill-rule="nonzero" node-id="156" stroke="none" target-height="182.79999" target-width="155.69998" target-x="121.1" target-y="461.2"></path><path d="M 739.30 494.20 L 745.40 484.10 L 748.70 479.20 L 752.40 474.60 L 758.10 469.30 L 761.30 467.10 L 762.70 476.40 L 763.50 485.80 L 763.70 495.20 L 739.30 494.20 Z" fill="#cb6e69" fill-rule="nonzero" node-id="158" stroke="none" target-height="28.100006" target-width="24.400024" target-x="739.3" target-y="467.1"></path><path d="M 732.60 512.70 L 740.60 497.10 L 767.70 495.80 L 761.20 516.80 L 758.10 528.80 L 757.20 538.30 L 757.40 543.10 L 758.20 547.90 L 763.60 563.90 L 772.40 586.30 L 777.40 597.20 L 781.00 604.30 L 789.20 618.00 L 792.60 622.60 L 796.50 626.80 L 800.60 630.60 L 805.00 634.10 L 814.50 640.20 L 822.10 644.30 L 845.40 655.00 L 879.70 680.80 L 888.10 687.60 L 896.10 694.70 L 901.20 699.70 L 910.50 710.30 L 914.60 716.10 L 918.30 722.20 L 921.70 728.60 L 913.30 727.40 L 905.00 726.60 L 896.50 726.20 L 888.10 726.30 L 879.80 727.00 L 871.50 728.10 L 863.30 729.80 L 855.20 732.10 L 847.30 735.00 L 838.50 738.70 L 830.10 743.00 L 821.90 747.70 L 814.00 752.90 L 806.40 758.60 L 799.30 764.70 L 792.50 771.30 L 786.20 778.20 L 780.30 785.50 L 775.00 793.20 L 770.20 801.20 L 765.90 809.60 L 762.90 816.40 L 760.30 823.50 L 758.20 830.70 L 756.40 838.20 L 755.10 845.80 L 754.60 834.90 L 754.80 824.00 L 755.50 813.20 L 756.80 802.50 L 758.40 793.90 L 760.30 785.50 L 762.60 777.10 L 765.30 768.90 L 768.50 760.70 L 748.80 767.70 L 738.80 770.70 L 723.70 774.70 L 708.40 778.20 L 707.10 720.10 L 707.10 710.00 L 707.70 700.00 L 708.40 693.40 L 710.90 680.10 L 719.50 684.40 L 723.70 687.00 L 747.40 704.10 L 753.50 707.90 L 759.90 711.20 L 764.20 712.90 L 768.80 714.20 L 773.60 715.00 L 774.10 709.70 L 774.20 704.40 L 773.70 699.20 L 771.60 689.00 L 767.50 676.40 L 754.30 643.10 L 746.40 620.20 L 742.90 608.60 L 739.90 596.80 L 737.30 585.00 L 735.20 573.10 L 733.60 561.10 L 732.50 549.10 L 731.90 537.00 L 732.00 524.90 L 732.60 512.70 Z" fill="#21b0c1" fill-rule="nonzero" node-id="160" stroke="none" target-height="350" target-width="214.60004" target-x="707.1" target-y="495.8"></path><path d="M 403.00 508.70 L 409.10 510.70 L 414.90 513.20 L 420.40 516.30 L 425.70 519.70 L 430.70 523.60 L 435.40 528.00 L 429.00 543.70 L 427.00 547.50 L 424.60 550.90 L 422.70 552.90 L 418.10 556.20 L 415.00 557.70 L 411.90 558.70 L 408.80 559.40 L 403.90 559.80 L 399.00 559.60 L 379.30 557.20 L 391.50 533.10 L 403.00 508.70 Z" fill="#f05d72" fill-rule="nonzero" node-id="162" stroke="none" target-height="51.099976" target-width="56.100006" target-x="379.3" target-y="508.7"></path><path d="M 869.90 512.40 L 890.40 511.60 L 890.10 518.20 L 889.20 525.10 L 888.20 529.70 L 885.40 538.70 L 883.40 542.90 L 881.20 546.90 L 878.60 550.60 L 875.60 553.90 L 872.30 556.80 L 868.60 559.30 L 862.50 561.90 L 859.00 562.70 L 851.80 563.70 L 848.60 563.70 L 845.60 563.30 L 840.00 561.40 L 833.60 557.20 L 830.00 554.10 L 823.40 547.50 L 827.10 547.70 L 841.70 550.00 L 846.70 549.60 L 849.00 548.90 L 851.20 547.70 L 853.40 545.80 L 856.10 542.70 L 858.50 539.30 L 860.60 535.70 L 863.20 530.00 L 869.90 512.40 Z" fill="#fb93a4" fill-rule="nonzero" node-id="164" stroke="none" target-height="52.100006" target-width="67" target-x="823.4" target-y="511.6"></path><path d="M 628.90 622.40 L 632.70 630.10 L 636.10 637.90 L 639.10 645.90 L 641.80 653.90 L 644.70 664.80 L 647.20 675.90 L 649.10 687.10 L 651.80 709.70 L 653.60 738.10 L 654.40 761.90 L 653.80 775.70 L 652.60 785.90 L 651.10 796.10 L 643.90 836.70 L 628.80 838.30 L 631.20 834.80 L 633.20 831.10 L 634.70 827.30 L 636.70 819.40 L 637.40 815.30 L 638.00 809.10 L 638.70 790.30 L 640.10 737.60 L 640.20 720.00 L 639.30 696.70 L 638.30 685.00 L 633.00 653.80 L 630.70 638.20 L 628.90 622.40 Z" fill="#6acbc9" fill-rule="nonzero" node-id="166" stroke="none" target-height="215.89996" target-width="25.600037" target-x="628.8" target-y="622.4"></path><path d="M 344.80 637.70 L 346.60 635.20 L 348.70 633.50 L 350.90 632.30 L 353.40 631.60 L 358.80 631.20 L 375.50 633.20 L 376.20 639.70 L 376.70 652.70 L 375.90 665.70 L 374.90 672.20 L 354.80 680.40 L 339.90 673.30 L 338.60 659.40 L 338.60 654.70 L 339.10 650.20 L 340.20 645.80 L 341.30 643.00 L 342.80 640.30 L 344.80 637.70 Z" fill="#ec5f6d" fill-rule="nonzero" node-id="168" stroke="none" target-height="49.200012" target-width="38.100006" target-x="338.6" target-y="631.2"></path><path d="M 140.70 644.00 L 159.60 638.20 L 159.80 644.50 L 160.50 650.90 L 161.80 657.20 L 163.20 661.80 L 166.90 670.60 L 169.20 674.80 L 171.90 678.70 L 174.90 682.40 L 178.40 685.70 L 182.20 688.80 L 186.80 691.70 L 191.50 694.10 L 196.40 696.00 L 206.70 698.60 L 219.90 700.20 L 243.90 701.00 L 242.10 736.70 L 236.70 808.10 L 210.30 806.70 L 201.50 805.80 L 184.00 803.20 L 175.40 801.30 L 166.90 798.90 L 158.60 796.10 L 152.50 793.70 L 140.60 787.80 L 134.90 784.20 L 129.60 780.50 L 124.70 776.40 L 120.30 771.90 L 116.10 767.10 L 112.30 762.10 L 108.80 756.70 L 102.80 745.50 L 100.10 739.60 L 96.60 730.70 L 93.60 721.70 L 104.30 720.70 L 109.60 719.70 L 114.80 718.20 L 118.10 716.90 L 124.00 713.20 L 126.50 710.80 L 128.70 708.00 L 130.60 704.70 L 131.80 701.20 L 133.10 694.40 L 133.20 691.10 L 132.80 686.70 L 132.00 682.30 L 130.80 677.90 L 128.20 671.60 L 125.10 665.30 L 118.10 653.60 L 140.70 644.00 Z M 147.60 760.60 L 146.90 764.30 L 146.80 767.70 L 147.30 770.70 L 148.20 773.70 L 149.60 776.40 L 151.40 778.80 L 156.00 782.90 L 158.70 784.50 L 164.70 786.90 L 167.90 787.60 L 171.20 787.90 L 177.70 787.60 L 179.90 782.30 L 181.50 777.00 L 182.40 771.70 L 182.70 766.50 L 182.40 761.20 L 181.40 755.90 L 179.90 750.60 L 177.70 745.20 L 165.50 745.20 L 161.40 745.50 L 158.70 745.90 L 154.00 747.40 L 151.90 748.60 L 150.20 750.20 L 148.90 752.10 L 148.00 754.30 L 147.60 757.10 L 147.60 760.60 Z" fill="#1eaec0" fill-rule="nonzero" node-id="170" stroke="none" target-height="169.89996" target-width="150.29999" target-x="93.6" target-y="638.2"></path><path d="M 85.40 649.10 L 90.40 649.20 L 95.30 649.90 L 99.90 651.20 L 104.40 653.00 L 108.60 655.20 L 112.40 658.00 L 116.00 661.10 L 119.20 664.60 L 122.00 668.40 L 124.40 672.40 L 126.40 676.70 L 127.90 681.20 L 128.80 685.80 L 129.20 690.50 L 129.10 695.20 L 127.70 702.30 L 124.80 709.30 L 115.40 713.00 L 105.70 715.20 L 99.10 716.00 L 92.40 716.40 L 85.70 716.40 L 83.30 710.90 L 81.50 705.50 L 80.20 700.00 L 79.40 694.30 L 79.10 688.70 L 79.10 683.00 L 79.90 674.40 L 81.30 665.90 L 85.40 649.10 Z" fill="#f16074" fill-rule="nonzero" node-id="172" stroke="none" target-height="67.30005" target-width="50.1" target-x="79.1" target-y="649.1"></path><path d="M 845.40 655.00 L 862.40 660.20 L 871.00 663.40 L 879.40 667.00 L 887.70 671.10 L 895.60 675.60 L 907.00 683.30 L 917.10 692.00 L 921.80 696.80 L 926.00 701.90 L 929.80 707.30 L 933.20 713.00 L 936.10 719.00 L 938.50 725.30 L 940.40 732.00 L 941.70 739.10 L 921.70 728.60 L 918.30 722.20 L 914.60 716.10 L 910.50 710.30 L 901.20 699.70 L 896.10 694.70 L 888.10 687.60 L 879.70 680.80 L 845.40 655.00 Z" fill="#7ac2c6" fill-rule="nonzero" node-id="174" stroke="none" target-height="84.099976" target-width="96.29999" target-x="845.4" target-y="655"></path><path d="M 523.80 663.60 L 531.30 661.20 L 539.10 659.30 L 547.20 657.90 L 553.30 657.20 L 565.40 657.00 L 571.50 657.40 L 577.50 658.30 L 583.30 659.60 L 589.10 661.30 L 594.70 663.50 L 597.20 664.90 L 600.80 668.00 L 602.00 669.70 L 603.30 672.20 L 604.10 675.00 L 604.50 678.00 L 604.10 684.10 L 602.10 692.10 L 600.40 696.70 L 596.70 705.00 L 591.90 713.20 L 589.10 717.40 L 586.00 721.20 L 583.70 723.50 L 581.30 725.40 L 576.50 727.70 L 571.90 728.20 L 564.30 727.30 L 554.70 725.20 L 547.60 722.90 L 534.00 717.00 L 527.40 713.60 L 524.20 711.50 L 521.30 708.80 L 518.70 705.70 L 516.40 702.30 L 514.60 698.60 L 513.10 694.70 L 512.10 690.60 L 511.60 686.60 L 511.60 682.60 L 512.10 678.70 L 513.20 675.00 L 514.90 671.60 L 516.50 669.30 L 518.50 667.20 L 520.90 665.30 L 523.80 663.60 Z M 529.30 667.90 L 526.20 669.30 L 523.60 671.10 L 521.60 673.10 L 520.00 675.50 L 518.80 678.10 L 518.10 680.90 L 517.80 686.80 L 519.00 692.80 L 521.40 698.60 L 525.10 703.60 L 529.70 707.60 L 532.30 709.10 L 556.10 718.40 L 559.90 719.60 L 567.00 720.80 L 570.50 720.80 L 573.80 720.30 L 577.00 719.10 L 579.10 717.90 L 581.10 716.10 L 583.10 713.90 L 589.60 703.10 L 594.10 694.10 L 595.80 689.40 L 596.80 684.80 L 597.00 681.70 L 596.80 678.80 L 596.10 676.00 L 594.90 673.40 L 593.00 670.90 L 590.40 668.50 L 583.90 666.20 L 577.20 664.50 L 570.40 663.50 L 563.40 662.90 L 556.50 662.90 L 549.60 663.50 L 542.70 664.50 L 535.90 666.00 L 529.30 667.90 Z" fill="#5f546a" fill-rule="nonzero" node-id="176" stroke="none" target-height="71.20001" target-width="92.899994" target-x="511.6" target-y="657"></path><path d="M 422.60 764.00 L 419.30 762.80 L 416.30 761.20 L 413.50 759.30 L 411.00 757.00 L 408.00 753.60 L 405.50 749.80 L 403.40 745.60 L 401.80 741.20 L 400.80 736.70 L 400.20 732.00 L 400.20 727.30 L 400.70 722.80 L 401.70 718.40 L 402.90 715.30 L 406.10 709.60 L 408.30 707.10 L 410.60 704.90 L 413.40 703.00 L 416.50 701.40 L 420.10 700.20 L 427.50 700.10 L 434.80 700.30 L 442.20 701.10 L 449.40 702.30 L 456.60 703.90 L 463.70 706.10 L 470.60 708.70 L 477.30 711.80 L 483.70 715.30 L 484.00 723.30 L 482.80 730.90 L 481.20 735.70 L 479.10 740.30 L 476.50 744.70 L 473.40 748.80 L 469.90 752.50 L 466.10 755.90 L 461.90 758.90 L 457.50 761.40 L 452.80 763.50 L 448.00 765.00 L 443.00 766.00 L 437.90 766.50 L 430.30 766.00 L 422.60 764.00 Z M 432.20 758.90 L 436.50 759.30 L 440.50 759.30 L 444.40 758.80 L 448.10 757.90 L 451.60 756.50 L 458.30 752.80 L 461.30 750.40 L 465.10 746.80 L 468.50 742.90 L 471.60 738.50 L 474.40 733.90 L 476.60 729.20 L 478.50 724.40 L 475.80 721.50 L 469.80 716.60 L 466.50 714.70 L 461.80 712.60 L 456.90 710.80 L 451.80 709.40 L 444.00 708.00 L 436.10 707.10 L 420.60 706.30 L 417.50 707.80 L 414.90 709.50 L 412.70 711.50 L 410.90 713.60 L 408.90 716.90 L 407.50 720.40 L 406.70 724.20 L 406.40 728.10 L 406.60 732.10 L 407.30 736.10 L 408.50 740.00 L 410.10 743.70 L 412.20 747.20 L 414.70 750.40 L 417.50 753.10 L 420.70 755.50 L 423.30 756.90 L 429.00 758.60 L 432.20 758.90 Z" fill="#5f546a" fill-rule="nonzero" node-id="178" stroke="none" target-height="66.400024" target-width="83.79999" target-x="400.2" target-y="700.1"></path><path d="M 526.40 783.80 L 532.20 781.70 L 538.10 780.00 L 544.00 778.90 L 550.00 778.20 L 556.00 777.90 L 562.00 778.10 L 568.00 778.70 L 579.90 781.10 L 591.40 784.90 L 597.00 787.40 L 599.10 789.20 L 600.50 791.00 L 601.40 793.00 L 602.10 797.40 L 601.20 803.30 L 597.80 813.60 L 596.00 817.80 L 591.40 825.60 L 588.60 829.30 L 585.50 832.60 L 582.20 835.60 L 578.60 838.20 L 574.70 840.30 L 570.60 842.10 L 566.30 843.20 L 561.80 843.80 L 553.30 843.90 L 549.90 843.50 L 546.60 842.80 L 543.60 841.70 L 539.70 839.70 L 536.20 837.20 L 533.00 834.20 L 530.20 830.90 L 527.70 827.20 L 525.60 823.10 L 523.90 818.90 L 522.60 814.50 L 521.80 809.90 L 521.40 805.30 L 521.40 800.80 L 521.90 796.30 L 522.90 791.90 L 524.40 787.80 L 526.40 783.80 Z M 535.90 787.90 L 533.80 789.80 L 530.60 794.30 L 529.50 796.80 L 528.50 800.30 L 528.00 803.90 L 528.00 807.70 L 528.40 811.60 L 529.30 815.30 L 530.70 819.10 L 532.40 822.60 L 534.50 825.90 L 536.90 828.90 L 539.60 831.60 L 542.60 833.80 L 545.90 835.60 L 548.50 836.50 L 554.10 837.30 L 561.40 837.10 L 565.30 836.50 L 569.00 835.30 L 572.60 833.50 L 575.80 831.40 L 578.90 828.80 L 584.30 822.80 L 586.60 819.30 L 589.60 813.80 L 592.10 808.10 L 593.90 802.30 L 595.20 796.70 L 591.20 793.60 L 586.90 790.90 L 582.20 788.60 L 577.30 786.80 L 572.10 785.30 L 566.80 784.30 L 561.50 783.80 L 556.10 783.70 L 550.80 784.00 L 545.60 784.80 L 540.60 786.10 L 535.90 787.90 Z" fill="#5f546a" fill-rule="nonzero" node-id="180" stroke="none" target-height="66" target-width="80.69995" target-x="521.4" target-y="777.9"></path><path d="M 529.30 667.90 L 535.90 666.00 L 542.70 664.50 L 549.60 663.50 L 556.50 662.90 L 563.40 662.90 L 570.40 663.50 L 577.20 664.50 L 583.90 666.20 L 590.40 668.50 L 593.00 670.90 L 594.90 673.40 L 596.10 676.00 L 596.80 678.80 L 597.00 681.70 L 596.80 684.80 L 595.80 689.40 L 594.10 694.10 L 592.00 698.70 L 585.00 711.00 L 583.10 713.90 L 581.10 716.10 L 579.10 717.90 L 577.00 719.10 L 573.80 720.30 L 570.50 720.80 L 567.00 720.80 L 559.90 719.60 L 550.60 716.30 L 532.30 709.10 L 529.70 707.60 L 525.10 703.60 L 521.40 698.60 L 519.00 692.80 L 517.80 686.80 L 518.10 680.90 L 518.80 678.10 L 520.00 675.50 L 521.60 673.10 L 523.60 671.10 L 526.20 669.30 L 529.30 667.90 Z" fill="#f36473" fill-rule="nonzero" node-id="182" stroke="none" target-height="57.899963" target-width="79.20001" target-x="517.8" target-y="662.9"></path><path d="M 665.10 665.70 L 684.30 670.30 L 684.80 696.50 L 688.60 670.90 L 710.90 680.10 L 709.40 686.70 L 707.70 700.00 L 707.10 710.00 L 707.10 720.10 L 707.60 740.20 L 704.60 765.80 L 702.60 773.90 L 699.80 779.90 L 698.00 782.60 L 695.70 785.20 L 693.00 787.60 L 694.00 774.50 L 697.80 735.20 L 698.70 722.00 L 699.00 708.90 L 698.90 700.20 L 698.30 691.40 L 697.20 682.60 L 695.70 709.40 L 689.50 789.60 L 681.00 789.50 L 680.60 737.80 L 679.60 712.00 L 678.20 738.20 L 677.60 790.60 L 666.10 802.50 L 668.30 793.50 L 669.80 784.40 L 670.80 775.40 L 671.40 757.20 L 670.30 734.40 L 666.30 693.20 L 665.40 679.40 L 665.10 665.70 Z" fill="#41bfc4" fill-rule="nonzero" node-id="184" stroke="none" target-height="136.79999" target-width="45.80005" target-x="665.1" target-y="665.7"></path><path d="M 264.50 695.00 L 278.40 686.20 L 276.30 697.90 L 274.60 709.50 L 273.40 721.20 L 272.30 738.90 L 271.70 756.50 L 271.00 791.90 L 269.00 792.00 L 265.60 793.10 L 263.00 795.40 L 262.00 797.00 L 260.90 799.50 L 260.40 802.30 L 260.50 805.10 L 261.20 807.80 L 253.10 807.30 L 253.50 783.60 L 254.80 760.00 L 256.80 744.40 L 258.20 736.60 L 263.40 748.60 L 263.60 712.90 L 264.50 695.00 Z" fill="#318691" fill-rule="nonzero" node-id="186" stroke="none" target-height="121.599976" target-width="25.299988" target-x="253.1" target-y="686.2"></path><path d="M 245.20 699.20 L 261.20 694.70 L 261.40 705.20 L 261.00 715.70 L 260.40 722.70 L 259.50 729.70 L 256.80 744.40 L 254.80 760.00 L 253.50 783.60 L 253.10 807.30 L 239.60 811.50 L 239.80 797.40 L 240.60 783.40 L 244.30 741.40 L 245.20 727.30 L 245.50 708.60 L 245.20 699.20 Z" fill="#29a1ac" fill-rule="nonzero" node-id="188" stroke="none" target-height="116.79999" target-width="21.799988" target-x="239.6" target-y="694.7"></path><path d="M 432.20 758.90 L 426.10 757.90 L 420.70 755.50 L 417.50 753.10 L 414.70 750.40 L 412.20 747.20 L 410.10 743.70 L 408.50 740.00 L 407.30 736.10 L 406.60 732.10 L 406.40 728.10 L 406.70 724.20 L 407.50 720.40 L 408.90 716.90 L 410.90 713.60 L 412.70 711.50 L 414.90 709.50 L 417.50 707.80 L 420.60 706.30 L 436.10 707.10 L 444.00 708.00 L 451.80 709.40 L 456.90 710.80 L 461.80 712.60 L 466.50 714.70 L 472.90 718.90 L 478.50 724.40 L 476.60 729.20 L 474.40 733.90 L 471.60 738.50 L 468.50 742.90 L 465.10 746.80 L 461.30 750.40 L 458.30 752.80 L 451.60 756.50 L 448.10 757.90 L 444.40 758.80 L 440.50 759.30 L 436.50 759.30 L 432.20 758.90 Z" fill="#f56377" fill-rule="nonzero" node-id="190" stroke="none" target-height="53" target-width="72.100006" target-x="406.4" target-y="706.3"></path><path d="M 324.50 767.40 L 322.70 764.30 L 321.50 761.20 L 320.70 758.10 L 320.30 755.00 L 320.60 748.80 L 321.40 745.80 L 323.90 740.20 L 327.70 735.40 L 330.10 733.40 L 332.70 731.60 L 335.60 730.20 L 338.70 729.10 L 342.20 728.40 L 363.10 736.70 L 363.90 749.90 L 363.80 757.30 L 362.40 762.70 L 361.20 765.20 L 359.50 767.60 L 357.20 769.80 L 346.10 771.60 L 338.50 771.70 L 334.80 771.30 L 331.20 770.50 L 327.70 769.20 L 324.50 767.40 Z" fill="#ea626a" fill-rule="nonzero" node-id="192" stroke="none" target-height="43.299988" target-width="43.600006" target-x="320.3" target-y="728.4"></path><path d="M 898.90 735.50 L 909.10 738.50 L 919.10 741.90 L 929.00 745.70 L 938.70 750.10 L 938.40 754.90 L 937.70 759.50 L 936.60 763.70 L 935.10 767.70 L 932.50 772.80 L 929.50 777.70 L 926.00 782.30 L 918.00 790.80 L 913.60 794.80 L 893.20 812.50 L 887.00 818.50 L 879.70 819.10 L 875.60 821.90 L 871.90 825.00 L 868.60 828.30 L 864.10 833.70 L 860.00 839.60 L 848.40 857.70 L 844.20 863.40 L 840.50 866.40 L 836.70 869.00 L 832.60 871.10 L 828.20 872.80 L 819.20 875.10 L 814.60 875.60 L 809.80 875.80 L 803.50 875.50 L 797.30 874.60 L 791.10 873.10 L 785.10 871.10 L 779.50 868.50 L 774.20 865.50 L 772.20 863.90 L 770.70 862.10 L 769.70 860.10 L 768.60 856.90 L 768.10 853.40 L 767.80 842.50 L 767.40 839.10 L 802.30 840.90 L 819.80 841.40 L 827.40 840.80 L 829.80 840.30 L 832.40 839.00 L 833.30 838.00 L 833.90 836.80 L 834.00 835.20 L 832.20 824.50 L 830.20 816.20 L 827.80 808.00 L 825.00 799.90 L 820.60 789.30 L 815.70 779.10 L 810.20 769.10 L 831.20 755.40 L 841.90 748.90 L 842.40 752.90 L 843.30 756.50 L 844.60 759.90 L 848.20 766.20 L 854.10 773.10 L 858.20 777.00 L 866.80 784.10 L 873.00 776.60 L 878.90 768.80 L 884.40 760.80 L 889.60 752.60 L 898.90 735.50 Z M 776.70 842.80 L 776.30 848.60 L 777.30 853.50 L 778.70 856.40 L 780.50 859.10 L 782.80 861.40 L 785.40 863.40 L 788.30 865.10 L 791.50 866.40 L 798.30 868.10 L 801.80 868.40 L 793.70 859.60 L 785.30 851.10 L 776.70 842.80 Z" fill="#dddaab" fill-rule="nonzero" node-id="194" stroke="none" target-height="140.29999" target-width="171.29999" target-x="767.4" target-y="735.5"></path><path d="M 147.60 760.60 L 147.60 757.10 L 148.00 754.30 L 148.90 752.10 L 150.20 750.20 L 151.90 748.60 L 154.00 747.40 L 158.70 745.90 L 161.40 745.50 L 165.50 745.20 L 177.70 745.20 L 179.90 750.60 L 181.40 755.90 L 182.40 761.20 L 182.70 766.50 L 182.40 771.70 L 181.50 777.00 L 179.90 782.30 L 177.70 787.60 L 171.20 787.90 L 167.90 787.60 L 164.70 786.90 L 158.70 784.50 L 156.00 782.90 L 151.40 778.80 L 149.60 776.40 L 148.20 773.70 L 147.30 770.70 L 146.80 767.70 L 146.90 764.30 L 147.60 760.60 Z" fill="#e95b68" fill-rule="nonzero" node-id="196" stroke="none" target-height="42.700012" target-width="35.899994" target-x="146.8" target-y="745.2"></path><path d="M 535.90 787.90 L 540.60 786.10 L 545.60 784.80 L 550.80 784.00 L 556.10 783.70 L 561.50 783.80 L 566.80 784.30 L 572.10 785.30 L 577.30 786.80 L 582.20 788.60 L 586.90 790.90 L 591.20 793.60 L 595.20 796.70 L 593.90 802.30 L 592.10 808.10 L 589.60 813.80 L 586.60 819.30 L 584.30 822.80 L 578.90 828.80 L 575.80 831.40 L 572.60 833.50 L 569.00 835.30 L 565.30 836.50 L 561.40 837.10 L 554.10 837.30 L 548.50 836.50 L 545.90 835.60 L 542.60 833.80 L 539.60 831.60 L 536.90 828.90 L 534.50 825.90 L 532.40 822.60 L 530.70 819.10 L 529.30 815.30 L 528.40 811.60 L 528.00 807.70 L 528.00 803.90 L 528.50 800.30 L 529.50 796.80 L 532.00 792.00 L 535.90 787.90 Z" fill="#f36073" fill-rule="nonzero" node-id="198" stroke="none" target-height="53.599976" target-width="67.20001" target-x="528" target-y="783.7"></path><path d="M 261.20 807.80 L 260.50 805.10 L 260.40 802.30 L 260.90 799.50 L 262.00 797.00 L 263.00 795.40 L 265.60 793.10 L 269.00 792.00 L 271.00 791.90 L 272.30 793.30 L 273.20 794.80 L 273.90 798.50 L 273.40 802.30 L 272.30 804.90 L 270.70 807.20 L 269.40 808.40 L 266.40 809.60 L 264.80 809.60 L 263.10 809.00 L 261.20 807.80 Z" fill="#43a2ac" fill-rule="nonzero" node-id="200" stroke="none" target-height="17.699951" target-width="13.5" target-x="260.4" target-y="791.9"></path><path d="M 434.30 810.40 L 439.90 807.20 L 443.10 805.90 L 449.60 804.20 L 453.00 803.80 L 456.40 803.70 L 462.90 804.80 L 466.00 805.90 L 468.80 807.50 L 471.40 809.60 L 473.10 816.50 L 473.60 820.20 L 473.60 827.70 L 473.00 831.30 L 472.10 834.80 L 470.60 838.00 L 468.80 840.90 L 465.00 844.60 L 462.60 846.10 L 456.40 848.40 L 453.20 848.90 L 450.20 848.70 L 447.10 847.90 L 444.30 846.70 L 441.60 845.00 L 439.10 843.00 L 436.90 840.60 L 433.20 835.00 L 430.90 828.80 L 430.30 825.50 L 430.20 822.30 L 430.40 819.10 L 431.20 816.00 L 432.50 813.10 L 434.30 810.40 Z" fill="#ef5e75" fill-rule="nonzero" node-id="202" stroke="none" target-height="45.200012" target-width="43.399994" target-x="430.2" target-y="803.7"></path><path d="M 628.80 838.30 L 633.50 837.90 L 635.80 839.20 L 637.50 840.60 L 638.80 842.30 L 640.30 846.10 L 640.70 848.20 L 640.80 861.70 L 616.00 869.40 L 618.30 861.30 L 621.10 853.30 L 625.90 843.20 L 628.80 838.30 Z" fill="#489196" fill-rule="nonzero" node-id="204" stroke="none" target-height="31.5" target-width="24.799988" target-x="616" target-y="837.9"></path></svg>
